<?xml version="1.0" encoding="utf-8"?>
<!-- Generator: Adobe Illustrator 24.1.0, SVG Export Plug-In . SVG Version: 6.00 Build 0)  -->
<svg version="1.1" id="Capa_1" xmlns="http://www.w3.org/2000/svg" xmlns:xlink="http://www.w3.org/1999/xlink" x="0px" y="0px"
	 viewBox="0 0 603.6 515.4" style="enable-background:new 0 0 603.6 515.4;" xml:space="preserve">
<style type="text/css">
	.st0{fill:#DBD0FE;}
	.st1{fill:#F5F5FF;}
	.st2{fill:#727E86;}
	.st3{fill:#FEC63C;}
	.st4{fill:#334751;}
	.st5{fill:#A5D278;}
	.st6{fill:#DBCDFE;}
	.st7{fill:#57BA7B;}
	.st8{fill:#57BA7A;}
	.st9{fill:#EFBC3A;}
	.st10{fill:#FFFFFF;}
	.st11{fill:#F3AF90;}
	.st12{fill:#9B87FF;}
	.st13{fill:#FCFEFD;}
	.st14{fill:#7F70F1;}
	.st15{fill:#EDA235;}
	.st16{fill:#0A2D4D;}
	.st17{fill:#0B2E4E;}
	.st18{fill:#FDFDFD;}
	.st19{fill:#9A87FF;}
	.st20{fill:#9480FA;}
	.st21{fill:#FBFDFD;}
	.st22{fill:#FDFDFB;}
	.st23{fill:#FDFEFB;}
	.st24{fill:#FEFEFD;}
	.st25{fill:#FDFDF9;}
	.st26{fill:#E1F2F3;}
	.st27{fill:#59BA79;}
	.st28{fill:#F6FBFB;}
	.st29{fill:#F1FAFA;}
	.st30{fill:#F3FBFC;}
	.st31{fill:#E0F2F4;}
	.st32{fill:#AFA0FD;}
	.st33{fill:#F4F9FA;}
	.st34{fill:#051E32;}
	.st35{fill:#DD9922;}
	.st36{fill:#E2F1F2;}
	.st37{fill:#F6A17B;}
	.st38{fill:#E3F1F3;}
	.st39{fill:#E4EBE7;}
	.st40{fill:#EF9875;}
	.st41{fill:#E0F2F3;}
	.st42{fill:#E1F1F3;}
	.st43{fill:#FEFEFE;}
	.st44{fill:#E5785C;}
	.st45{fill:#8062FC;}
	.st46{fill:#F4F4FE;}
	.st47{fill:#8071F0;}
</style>
<g id="Capa_2_1_">
	<g id="_99QDvk">
		<path class="st0" d="M560,496.7c9.1,0,18.2,0,27.3,0.1c5.8,0.1,10.4,4.9,10.3,10.7c0,1.1-0.2,2.2-0.6,3.3c-0.7,1.8-2.2,3-3.3,4.6
			H4c-2.1-2.4-3.7-4.8-4-8.3c-0.3-5.1,5-10.4,10.3-10.3c8.2,0,16.4,0,24.6,0c0.8,0,1.7,0.3,2.4-0.4c0.6-0.3,1.4-0.4,2.1-0.3
			c46.6,0,93.2,0,139.8,0c0.3,0,0.7,0,1,0c18.6-0.1,37.1,0,55.7,0c0.4,0,0.9,0,1.3,0.1c1.5-0.1,3-0.1,4.4-0.1h146.9c0.5,0,1,0,1.5,0
			c2.8,0.1,5.6,0,8.4,0c18.3-0.1,36.7,0,55,0c1,0.1,2,0.2,2.9,0.1c7.1-0.2,14.2-0.1,21.4-0.1c2.9-0.1,5.7-0.1,8.6,0
			c12.9-0.1,25.8-0.1,38.7,0c10.8-0.1,21.6,0,32.4,0C558.3,495.9,559.2,496.2,560,496.7z"/>
		<path class="st1" d="M456.2,496.8c-1.1,0.5-2.2-0.1-3.2-0.1c-21,0-42,0-63,0c0.1-1.2,1.1-0.9,1.7-1c3.5-0.3,6.9-1,10.3-2
			c3.4-1,6.6-2.9,9.1-5.4c3.6-3.8,3.9-8.4,3.4-13.2c-0.1-0.7-0.3-1.4-0.3-2.1c0.3-7.4-1.8-14.4-4-21.3c-3.6-11.4-8.2-22.5-12.4-33.7
			c-0.5-1.4-1.8-2.6-1.4-4.3c0.7-0.6,1.6-0.9,2.5-1c5.6-1.4,10.8-3.9,15.3-7.4c5.4-4.3,9.2-10.3,10.9-17c2.8-11.5,2-22.8-3.6-33.3
			c-3.1-5.9-7.6-11-12-16c-3.1-3.3-5.7-7.2-7.7-11.3c-2-4.6-1.7-9.1,0.1-13.6c1-2.8,2.1-5.5,3.5-8.2c3.2-6.1,1.8-11.6-1.7-17
			c-4.5-6.9-11.3-10.4-18.8-12.8c-4.6-1.4-9.3-2.4-14-3c-1.3-0.2-2.6-0.7-3.7-1.5c-8.3-5.3-12-13.2-12.1-22.7
			c-0.1-7.4-0.9-14.4-3.6-21.3c-1.7-4.2-2.6-8.8-5-12.7c-5.3-9.1-13.3-16.4-22.9-20.9c-8.5-4-17.8-6.3-27.2-6.7
			c-8.7-0.4-17.1,0.7-25,4.3c-7.5,3.3-13.5,9.4-16.6,17c-1,1.6-0.8,3.6-1.7,5.2c-2.5,4.8-7,8.3-12.3,9.4c-6.6,1.6-13.1,3.8-18.7,7.9
			c-6.4,4.7-9.6,11.1-10.2,19.1c-0.5,8,3.1,14.3,8,20.1c1.6,1.9,3.2,4,4.5,6.1c3.8,6.1,2.7,12.2-0.3,18.1c-2.3,4.2-5.4,8-9.2,11
			c-3.1,2.7-6.1,5.5-7.9,9.3c-2.7,5.9-1.6,11.7,0.9,17.4c1,2.2,2.1,4.3,3.2,6.5c3.7,7.2,4.1,14.6,0.7,22c-3.3,6.7-3.5,14.5-0.3,21.3
			c0.2,0.5,0.4,0.9,0.5,1.4c0.2,1.1,0.1,2.3-0.4,3.3c-4.6,14.5-8.3,29.3-11.2,44.3c-1.7,9.7-4.1,19.3-7.4,28.6
			c-0.5,1.3-0.4,2.7-1.1,3.8c-0.5,0.6-1.3,0.9-2,0.6c-2.1-0.6-4.3-1.1-6.2-2.3c-0.9-1.2-0.9-2.6-1.2-4c-3.5-17.9-7-35.9-10.5-53.8
			c-1.3-6.7-2.7-13.4-3.9-20.2c0-0.1,0-0.1,0-0.2c-1.2-6-2.8-7.3-8.8-7.3h-62c-1.2,0.1-2.4,0-3.6-0.2c-5.2-5.9-10.1-12-14.8-18.4
			c-3.8-5-6.8-10.6-8.9-16.5c-2.2-6.3-3-13-2.3-19.6c0.3-2.9,0.4-5.7,1-8.6c0.8-3.6,1.7-7.1,2.9-10.6c1.6-4.7,3.6-9.3,6-13.7
			c-3.6,4.6-6.7,9.7-9.2,15c-3.3,6.8-5.3,14.2-6,21.7c-1.1,14.1,2.1,26.9,12.2,37.5c4.3,4.4,8.9,8.4,13.7,12.1
			c0.4,0.3,0.6,0.6,0.1,1c-1,0.5-2.2,0.4-3.1-0.3c-0.2-0.8-0.8-1.5-1.6-1.9c-3.9-2.5-6.9-5.9-10.1-9.1c-6.2-6.1-10.4-13.9-12.1-22.5
			c-1.4-6.8-1.5-13.9-0.4-20.8c1.1-6.9,3.1-13.5,6.1-19.8c3-6.1,6.8-11.8,11.2-17c4.3-5.2,9.3-9.9,13.4-15.4
			c1.9-2.5,4.5-4.3,6.9-6.4c7.2-6.5,15.3-12,22.1-18.9c3.6-3.7,5.8-8.4,7.8-13.1c1.4-2.8,2.5-5.8,3.5-8.8c1.5-5.1,2.6-10.2,3.4-15.4
			c0.8-5.6,1.2-11.3,1.8-16.9c0.7-7.1,1-14.1,1.9-21.2c0.7-6,1.7-11.9,3-17.8c1.3-5.1,3.2-10.1,5.4-14.9
			c4.6-10.4,10.9-19.9,18.7-28.1c4.5-4.7,9.4-9,14.7-12.8c3.8-2.7,7.9-5,12.1-6.9c2.7-1.4,5.5-2.6,8.4-3.6c2.6-0.8,5.4-1.4,8.1-2.2
			c7-2,14.2-1.9,21.5-1.7c7.5,0.3,14.8,1.7,21.9,4c9.9,3.1,19.3,7.7,27.8,13.7c2.5,1.7,5,3.7,7.4,5.5c0.5,0.3,0.8,0.8,0.8,1.4
			c-1,0.8-1.9,0.2-2.6-0.4c-5.4-4.4-11.2-8.3-17.4-11.6c-10.1-5.3-20.9-9.1-32.3-10.3c-9.4-1-18.7-1-27.8,1.4
			c-5.8,1.4-11.4,3.5-16.7,6.2c-8.3,4.4-16,10.1-22.7,16.8c-11.3,11.4-19.7,25.4-24.6,40.7c-2.1,6.3-3,12.9-3.7,19.5
			c-0.8,7.4-1.2,14.9-1.9,22.3c-0.7,8.8-1.3,17.6-3.6,26.2c-1.3,4.6-2.3,9.3-4.1,13.1c3.9-7,6.4-15.1,8.1-23.5
			c1-5.4,2-10.8,2.9-16.2c1.9-11.9,3.9-23.8,8.2-35.2c3.5-9,8.2-17.5,13.9-25.3c4-5.5,8.6-10.6,13.7-15.2c4.6-4,9.6-7.5,14.9-10.3
			c8.4-4.7,17.6-7.9,27.2-9.2c11.7-1.8,23.7-0.7,34.9,3.2c10.5,3.7,20.1,9.1,29.6,14.8c6.8,4,13.4,8.5,21,12.1
			c-4-3.4-6.5-7.4-10-10.7c-2-1.9-4-3.9-6.1-5.8c-0.8-0.7-1.7-1.4-1-2.7c2.9,1,4.5,3.7,6.7,5.6c4,3.4,6.9,7.9,10.6,11.5
			c5.1,4.9,10.7,8.9,17.8,11.1c4.4,1.3,8.9,2.2,13.4,3.4c2.6,0.7,5.3,1,8,1.1c2.7,0.1,5.5,0.8,8.1,0.7c5.7-0.2,11.4,0.6,17.1-0.1
			c3.4-0.3,6.9-0.3,10.3-0.1c1.7,0.1,2.1-0.6,2.1-2.2s-0.5-3.1,0.3-4.6c1.1,1,0.7,2.4,0.7,3.6c0,24,0,48,0,72c0,1.2,0,2.4,0,3.6
			c-0.1,5.4,4.2,9.9,9.6,10c0.1,0,0.3,0,0.4,0c2.6,0,5.2-0.1,7.8,0s3.6,1,3.7,3.8c0.1,6.1,0,12.3,0,18.4c0,0.6,0,1.1,0,1.7
			c0,1.2,0.3,1.6,1.5,0.8c2.9-2.2,5.9-4.3,8.9-6.5c5.4-4.1,11-8,16.5-12.1c1.8-1.3,3.5-2.6,5.2-4c1.9-1.5,4.4-2.3,6.8-2.3
			c13.6,0.1,27.2,0,40.9,0c16.7,0,33.3,0,50,0c1.2,0,2.4-0.3,3.4,0.7c-0.7,0.5-1.5,0.3-2.2,0.3c-5.9,0-11.8,0.1-17.7,0
			c-1.8,0-2.2,0.6-2,2.2c0.5,7,0,14-1.8,20.8c-0.8,3.7-2.5,7.1-3.7,10.6c-0.4,0.8-0.3,1.8,0.3,2.5c-1.9,0.1-3.1-0.8-3.3-2.3
			c2.3-2.5,3.3-5.7,4.2-8.9c1.9-7,2.7-14.3,2.3-21.6c0-0.9,0.4-2.2-0.9-2.5c-1.5-0.5-3.1-0.4-4.5,0.2c-0.7,0.4-0.5,1.4-0.3,2.2
			c0.9,4.8,1.3,9.7,1.1,14.6c0,5.5-1.2,10.8-2.2,16.1c-0.7,0.8-1.6,0.3-2.4,0.3c-2.1-0.2-4.2,0.2-6.1,1.1c-4.1,2.1-5.3,5.8-5.4,10
			c-0.1,2.8-0.3,5.5-1.9,7.9c-1.3,1.4-2.9,2.6-4.7,3.5c-6.5,2.7-7.5,7.9-5.8,14.3c1.2,2.9,2.7,5.6,4.4,8.2c1.5,2.2,2.8,4.5,3.9,7
			c1.3,2.8,1,6.1-0.7,8.7c-1.1,1.6-2.4,3.1-3.5,4.8c-1.8,2.7-2.3,6-1.5,9.1c1.6,4.2,4.2,7.8,7.1,11.1c4.1,4.8,5.4,10.2,3.6,16.3
			c-0.5,2.2-0.8,4.6-0.7,6.9c0.5,5.6,4.2,8.7,8.5,11.4c1.6,1.1,3.2,2.3,4.6,3.7c3.1,3,3.7,6.5,2.1,10.5c-0.6,1.6-1.5,3.2-1.4,5.1
			c0,2.4,1,4.8,2.7,6.5c1.8,2,3.7,3.8,5.8,5.6c0.7,0.6,1.5,1.1,1.1,2.3c-0.3,0.9-0.4,1.8-0.3,2.7c0.2,4.3-0.1,8.6-0.8,12.8
			c0,0.7-0.2,1.4-0.6,2c-1.4,0.9-2.9,0.5-4.3,0.5c-2.3,0.1-2.7,0.5-2.8,2.8c0,2.8,0,5.5,0,8.3s0,2.9,2.9,3.7c1,1.1,0.5,2.5,0.2,3.6
			c-1,3.2-2.6,6.2-3.9,9.4c-0.4,1.2-1.3,2.2-2.4,2.8c-0.4,0-0.8-0.1-1.2-0.4c-3.1-2.5-7.1-3.7-11.1-3.4c-0.8,0.2-1.7-0.1-2.2-0.8
			c-0.7-3-0.2-6-0.3-9c-0.1-3.3,0-3.3-3.2-3.3c-1.7,0-3.3,0-5,0c-9.2,0.1-18.4,0-27.6,0c-2.8,0-3,0.1-3,3c0,14.1,0,28.2,0,42.3
			c0,3.5,0.8,6.4,3.5,8.7C455.7,495.5,456.3,495.9,456.2,496.8z"/>
		<path class="st2" d="M180.3,496.7h-141c-0.7,0.1-1.4-0.1-2-0.4c-0.9-1-1.5-2.3-1.7-3.6c-4.9-25-9.7-50.1-14.6-75.2
			c-1.7-8.8-3.4-17.6-5.3-26.3c-0.8-3.1,0.3-6.3,2.9-8.2c1.2-0.5,2.4-0.7,3.7-0.6h132.6c4.4,0,6.4,1.7,7.4,6.2
			c2.1,9.9,3.8,19.8,5.8,29.7c3,15.1,6,30.3,9,45.5c1.8,9.1,3.7,18.1,5.2,27.2C182.7,493.3,182.3,495.4,180.3,496.7z"/>
		<path class="st3" d="M538.4,221.2h-37.9c-18.8,0-37.7,0.1-56.5-0.1c-2.4,0-4.8,0.8-6.7,2.4c-6.2,4.6-12.4,9.1-18.6,13.7
			c-4,3-8.1,6-12.1,8.9c-0.5,0.4-0.9,1.4-1.7,0.9c-0.5-0.3-0.3-1.2-0.3-1.8c0-7,0-14,0-21c0-2.9-0.2-3.1-3.1-3.1
			c-2.7,0-5.5-0.1-8.2,0c-5.1,0.2-10.2-5.6-10.2-10.3c0.1-26.1,0.1-52.3,0-78.4c0-0.4,0-0.8,0-1.3c0.2-4.9,5.3-9.8,10.4-9.8
			c2,0,3.9,0,5.9,0c45.1,0,90.2,0.1,135.3-0.1c6.6-0.1,12.1,5.1,12.2,11.8c0,0.2,0,0.3,0,0.5c-0.2,25.1-0.1,50.3,0,75.4
			c0.1,4.1-1.7,8-4.9,10.4C540.9,220.4,539.4,220.2,538.4,221.2z"/>
		<path class="st4" d="M180.3,496.7c2.8-3.8,1-7.7,0.3-11.5c-2.9-15.2-5.8-30.3-8.8-45.5c-2-10.1-4-20.1-6-30.2
			c-1.4-6.9-2.8-13.8-4-20.7c-0.6-3.4-2.7-5.9-6.9-5.9c-44,0.1-88,0.1-131.9,0.1h-4.3c1.5-2.2,3.2-4.2,5.1-6c1.3-1.3,3-1.4,4.7-1.4
			c17.7,0,35.4,0,53.1,0H98h62.8c4.2,0,6.2,1.5,7,5.7c3.2,16.2,6.4,32.4,9.5,48.5c2,10.2,4,20.5,6,30.7c0.1,0.3,0.2,0.7,0.4,1
			c0.6,0.8,0.9,1.7,1,2.7c0.8,5,2.2,9.9,2.9,15c0.3,1.9,1.2,2.5,3,2.4c6.6,0,13.2-0.1,19.8,0c5.1-0.1,10.3-0.1,15.4,0
			c4.5-0.1,8.9-0.1,13.4,0c2.9,0,5.7,0,8.5,0c0.8-0.1,1.5,0.1,2.2,0.4c1.1,1.1,0,1.6-0.7,2.1c-3.1,2.4-6,5.1-8.5,8.1
			c-1.2,1.4-2,3.2-3.5,4.5c-2.3,0-4.6,0.1-6.9,0.1C213.7,496.8,197,496.7,180.3,496.7z"/>
		<path class="st5" d="M517.2,409c-2.3-2.3-4.6-4.5-6.8-6.8c-2.9-3.1-4.3-6.7-2.3-10.8c3.8-7.5-0.3-11.4-5.7-15.1
			c-4.3-2.9-8.5-5.9-8.7-11.8l0.2-0.2c1.5,0,3.1,0.3,4.5,0.9c11.9,4,23,9.9,33,17.6c1.7,1.2,2.9,3.1,3.2,5.1c0.6,3.3,1.3,6.6,1.7,10
			c0.3,1.7-0.2,3.4-1.5,4.6c-0.2,0.2-0.3,0.5-0.6,0.6c-5.1,3.9-4.8,9-3.2,14.4c0.8,2.4,1.7,4.8,2.8,7.1c0.3,0.9,1.1,1.5,2,1.5
			c1.8,0.1,3.7,0.1,5.5,0c1.3,0,2.3-0.9,2.5-2.2c1.1-5.2,2.8-10.2,3.8-15.4c0.9-4.4-0.3-8.6-2.1-12.8c-1.9-4.4-4.3-8.6-7-12.6
			c-0.2-0.3-0.4-0.6-0.5-0.9c-0.3-0.9-0.9-2,0.2-2.6s1.5,0.6,2,1.3c4.2,6.3,7.4,13.1,9.6,20.2c1.2-2,1.4-4.3,2.2-6.4
			c1.7-4.6,3.5-9.2,5.3-13.8c0.6-1.3,0.7-2.8,0.4-4.1c-2.5-9.1-6.6-17.6-11.9-25.4c-0.1-0.1-0.2-0.2-0.5-0.2c-0.5,0.9-0.7,2-0.6,3
			c0.1,3.1-0.4,6.2,0.7,9.2c0.5,1.3,0.3,2.7-0.5,3.8c-2.9,3.5-4.8,7.9-8,11.1c-0.5,0.5-0.9,1.3-1.7,1.1c-1-0.2-0.7-1.2-0.8-2
			c-1.2-9.5-2.8-18.8-4.8-28.2c-0.4-1.9-0.2-3.8,0.7-5.5c5.2-10.5,12-20.2,20-28.7c1.6-1.7,3.6-3,4.5-5.3c0.1-0.2,0.3-0.3,0.5-0.4
			c0.9,4.1,0.3,8.3-0.4,12.4c-0.5,3.1-1.5,6-2.8,8.9c-1.7,3.8-2.3,7.7,0.1,11.5c0,0.9-0.6,1.4-1.2,1.8s-1.2,0.8-1.7,1.2
			c-2.8,2.1-2.9,2.3-1,5.1c5,7.5,8.9,15.7,11.6,24.3c1.3-2.6,2.3-5.1,3.4-7.6c0.7-1.9,1.6-3.8,2.5-5.6c2.4-3.8,2.7-8,2.8-12.2
			c0.2-6.3-0.1-12.6-0.8-18.8c-0.3-2.4-1.2-4.6-1.4-7.1c-0.1-0.9-0.1-1.7,1.1-1.9c0.5-0.1,0.9-0.2,1.3,0.3
			c1.4,7.9,2.7,15.8,2.7,23.9c0,1.4-0.1,2.8-0.2,4.2c2-3.2,3.6-6.7,5.4-9.9c4.3-7.7,9.1-15.2,14.3-22.4c0.4-0.5,0.7-1.1,1.4-1.2
			c0.7,0.1,1.4,0.5,1.7,1.2c-3.7,4.9-7,10-10.3,15.2c-3.8,6.1-7.2,12.4-10.5,18.9c-0.4,0.5-0.5,1.1-0.2,1.7c3.1-1,6-2.5,9-3.5
			c5.6-1.8,11.2-3.9,17-5.1c1.1-0.2,2.3-0.8,3.5-0.1c0,1-0.5,1.9-1.2,2.5c-8,1.1-15.7,3.8-23.1,6.9c-1.8,0.7-3.5,1.5-5.3,2.1
			c-1.2,0.3-2.2,1.1-2.8,2.1c-2.9,5.4-5.2,11.1-7.5,16.8c-0.2,0.4-0.2,0.9,0,1.4c10.6-3.7,21.8-5.6,33.1-5.5
			c-0.2,1.2-0.7,2.4-1.6,3.3c-0.6-0.3-1.3-0.5-2-0.5c-5.8,0.4-11.6,0.6-17.3,1.9c-4.2,0.8-8.3,2-12.3,3.5c-1.2,0.4-2.1,1.4-2.6,2.6
			c-2.5,6.1-4.7,12.2-6.9,18.4c-0.4,1-0.6,2-0.5,3.1c2.5-1.2,4.9-2.2,7.3-3.2c6.8-2.9,14-4.6,21.4-5.1c0.7-0.1,1.4-0.1,2.1,0.2
			c0.2,0.7,0,1.5-0.4,2.1c-10,0.8-19.7,3.6-28.6,8.1c-2.5,1.1-4.2,3.3-4.7,6c-0.8,4-2.1,7.9-3,11.9c-0.6,2.5-0.5,2.6,2.1,2.6
			c2.9,0.1,5.8,0.1,8.6-0.2c0.6-0.2,1.1,0,1.6,0.4c2,1.1,4.1,0.1,6.1,0.6c-0.4,1.1-1.3,0.9-2.1,0.9c-1.7,0.1-3.3,0.1-5,0
			c-4.1-0.1-8.2,0.1-12.3-0.1c-3.3,0-6.5,0.2-9.8,0.1c-1.2,0.1-2.4-0.1-3.5-0.5c-1.7-1.4-3.1-3.1-4.2-4.9c-2.8-4.2-6.1-8.1-9.7-11.7
			C517.7,410.2,517.1,409.8,517.2,409z"/>
		<path class="st3" d="M560,496.7h-35.2c-1.8-1.5-1.6-3.7-1.9-5.6c-1.7-9.3-3.1-18.7-4.9-28c-0.7-3.6-1.3-7.2-1.8-10.8
			c-0.2-1-0.3-2.1,0.7-2.9c0.9-0.3,1.8-0.5,2.7-0.4c15,0,30.1,0,45.1,0c1.2,0,2.6-0.3,3.4,1.1c-0.5,4-1.5,7.8-2.1,11.7
			c-0.7,4.1-1.3,8.2-1.9,12.2C562.6,481.6,561.3,489.1,560,496.7z"/>
		<path class="st5" d="M491.5,274.5c2-3.3,1.8-7.2,2.1-10.8c0.5-6.2,7.7-10.1,13.4-8.4c0.2,0,0.4,0.1,0.6,0.1c0.1-0.1,0.2-0.1,0.3,0
			c0,0,0,0.1,0.1,0.1c1,0.9,2.2,1.6,3.4,2.1c2.4,2.6,4.9,5.2,7.1,8.1c1.6,2.1,4.2,2.5,6.7,2.6s5,0,7.6,0.2c4.9,0.5,7.9,3.2,9.1,8.2
			c0.9,3.8,0.9,7.7,1.2,11.5c0.3,5.3,2.7,10.3,6.8,13.8c2.4,2.1,5,4.2,5.6,7.6l-0.2,0.1c-3.4,3.9-7.2,7.5-10.5,11.5
			c-4.8,5.8-9.1,12.1-12.6,18.7c-0.5,1-1.1,2-1.7,2.9c-0.7,0.9-1.4,0.9-1.8-0.2c-0.4-1.1-0.7-2.1-0.9-3.3c-1.6-7.3-3.2-14.6-5-21.8
			c-1-4.2-0.3-8.3,0.3-12.4c1.3-9.1,3.5-18,6.6-26.6c0.9-2.7,2.2-5.3,3.2-8.1c-1.4,2.9-2.6,5.9-3.7,9c-3.5,9-5.2,18.5-6.7,27.9
			c-0.1,0.4-0.1,0.7-0.2,1s-0.2,1.1-0.7,1.2s-0.8-0.4-1.1-0.8c-0.2-0.4-0.4-0.9-0.5-1.4c-0.8-3.4-1.9-6.6-2.9-10s-2.2-6.7-3.4-10
			c-2.4-6.9-4.7-13.9-7.8-20.5c-1.3-2.8-2.4-5.7-3.8-8.5c-0.2-0.5-0.3-1.1-1-1.3c0.2,1.3,1.7,2.2,1,3.7c-1.4,0.5-1.6-0.8-2.2-1.4
			c-0.7-0.9-1.5-1.3-2.5-0.4c-1.5,1.3-3.2,9.4-2.5,11.4c0.5-0.1,0.5-0.6,0.7-0.9c0.2-0.5,0.9-0.8,1.4-0.6c0.7,0.2,1.5,0.5,1.5,1.2
			c0.1,1.7-0.2,3.4-0.8,5c-0.4,0.8-1.3,1.1-2.1,0.8c-0.1-0.1-0.2-0.1-0.3-0.2C494.1,274.6,492.8,274.8,491.5,274.5z"/>
		<path class="st6" d="M66,243.6c-2.8,0-5.6,0-8.4,0c-1.4,0-2.8,0.5-3.8,1.4c-2.6,2.1-5.3,3.9-7.9,5.9c-1.3,1-1.7,0.5-1.8-0.9
			c-0.1-1.8-0.1-3.5,0-5.3c0.3-2.3-0.6-4.6-2.3-6.1c-4.9-5.1-5.9-11.1-2.9-17.4c2.5-5.2,6.7-8.8,12.7-9c7.7-0.3,15.5-0.3,23.2,0
			c9.1,0.4,15.8,9.5,14.1,18.4c-1.3,7.8-8.2,13.4-16.2,13C70.5,243.5,68.2,243.6,66,243.6z"/>
		<path class="st3" d="M531.7,426.7c4.1,0.7,8.4,0.7,12.5,0.1c0.3-0.1,0.7,0,0.9,0.3c4.2,0.3,8.4,0.4,12.6,0.1
			c2.3-0.3,4.7,0.2,7-0.3c3.2-0.2,6.4-0.1,9.6,0.2c0.8,0.1,1.1,0.3,1.2,1.1c0.6,4.2,0.3,8.4,0.3,12.6c0,1.5-1.4,1.2-2.2,1.4
			c-1.5,0.4-3.1-0.3-4.5,0.6c-16.7-0.2-33.4,0-50.1-0.1c-1.2-0.1-2.4,0.1-3.5,0.3c-1.3,0.1-2.6,0.3-3.7-0.6c-0.6,0-1.2-0.1-1.9-0.1
			c-0.9,0.1-1.7-0.5-1.8-1.3c0-0.2,0-0.3,0-0.5c0-4,0-8,0-12c0-1.2,0.7-1.7,1.9-1.8l5.6-0.1c0.6-0.5,1.4-0.7,2.2-0.6
			c3.9,0,7.8,0,11.7,0C530.3,426,531.1,426.3,531.7,426.7z"/>
		<path class="st7" d="M583.2,395.4c-2.8,0.4-5.6,0.9-8.5,1.2c-3.9,0.6-7.8,1.6-11.5,3c-4,1.3-7.7,3.2-11.7,4.9
			c0.3-3.9,1.9-7.2,3.2-10.6c1.6-4.3,3.3-8.5,4.8-12.8c0.3-0.9,0.9-1.6,1.8-1.9c6.9-2.6,14.1-4.4,21.5-5.3c3.1-0.4,6.3,0,9.4-0.7
			c0.9-0.2,1.9-0.3,1.9,1.2c-1,1.7-2.4,3.1-3.9,4.3c-1.4,1.2-2.8,2.6-4.1,3.9c-1.6,1.8-2.8,3.9-2.6,6.5
			C583.6,391.3,583.5,393.4,583.2,395.4z"/>
		<path class="st7" d="M567.5,321.7c-1.4,1-0.5,2.3-0.3,3.2c2.3,8.8,2.1,17.7,1.9,26.7c-0.1,3.6-1,7.1-2.7,10.2
			c-2.5,4.5-4.3,9.5-6.5,14.5c-1.2-3.3-2.1-6.5-3.4-9.4c-2.7-6.3-5.6-12.4-9.9-17.7c-0.8-1-0.5-1.5,0.2-2.4c1.6-1.9,3.9-2.7,5.5-4.5
			c2.6-1.1,3.8-3.4,4.7-5.9c1-2.9,1.6-5.8,2.6-8.7c0.9-2.6,2.2-4.9,5-5.8C565.5,321.7,566.5,321.6,567.5,321.7z"/>
		<path class="st8" d="M595.7,371.3c-0.8,0.7-1.9,1-2.9,0.8c-8-0.1-16,1.1-23.8,3.3c-2,0.6-4,1.2-6,1.9c-0.5,0.2-1.1,0.5-1.6,0.1
			s0.2-0.9,0.4-1.4c2.2-5.9,4.8-11.8,7.6-17.4c0.6-1.2,1.6-2.1,2.9-2.5c4.4-1.5,8.4-3.7,12.8-5c4.2-1.2,8.3-3,12.7-3.5
			c0.8-0.1,1.5-0.3,2.2-0.5c0.6-0.2,0.9-0.1,1,0.6c-1.9,2.3-3.8,4.6-5.8,6.9c-2.6,2.9-3.5,5.9-1.4,9.5
			C595.5,366.1,596.4,368.5,595.7,371.3z"/>
		<path class="st7" d="M558.7,426.4c-3.9,0.6-7.8,0.3-11.7,0.4c-1.5,0-1.9-0.5-1.5-2.1c1.3-4.1,2.3-8.2,3.1-12.4
			c0.8-4.8,4.1-6.8,7.9-8.5c8-3.7,16.6-5.9,25.4-6.8c0.5,0,0.8,0,0.9,0.5c-0.9,3.2-3.4,4.7-6.2,5.9c-1.8,0.8-3.6,1.7-5.2,2.7
			c-2.4,1.4-3.6,4.2-2.8,6.9c1,4.8,0.2,6.8-4,9.5L558.7,426.4z"/>
		<path class="st7" d="M602.5,345c-7.3,1.1-14.3,3.7-21.3,6.1c-2.5,0.8-4.8,2-7.2,2.9c-0.5,0.2-1.1,1-1.7,0.4s-0.2-1.3,0.1-2
			c1.1-2.2,2.2-4.5,3.4-6.8c4.9-9.1,10.4-17.9,16.5-26.4c0.5-0.6,0.9-1.3,1.7-1.4c3,2.2,3.2,5.3,2.5,8.5c-0.9,4.1,0.9,6.8,4,9.1
			S604.4,341.5,602.5,345z"/>
		<path class="st6" d="M351.2,73.1H392c1.9,0.6,2.1,1,0.7,2.4c-6,6.1-12.2,11.9-18.3,17.9c-2,2-3.5,1.8-5.6-0.1
			c-6.1-5.5-11.6-11.7-17.8-17.2C349.3,74.5,349.4,74.1,351.2,73.1z"/>
		<path class="st9" d="M515.2,442.9c0.2-1,1-0.8,1.7-0.8h50.6c0.7,0,1.5-0.3,1.7,0.8c-0.4,2.4-0.4,4.9-1.3,7.3
			c-0.6-0.3-1.3-0.5-2-0.4c-16.5,0-32.9,0-49.4,0C515,448.3,514.4,444.9,515.2,442.9z"/>
		<path class="st6" d="M392.9,104.5c-13.7,0-27.5,0-41.2,0c-0.6,0.1-1.3,0-1.8-0.4c-0.3-1.1,0.6-1.5,1.2-2c4.3-3.3,8.7-6.6,13-10
			c1.3-1,2.2-1,3.4,0.1c4.2,3.7,4.3,3.7,8.4,0c0.8-0.9,2.2-1.1,3.1-0.3c0,0,0.1,0,0.1,0.1c3.3,2.4,6.4,5.1,9.6,7.5
			c1.4,0.9,2.7,1.9,4,3.1C393.4,103.1,394.1,103.8,392.9,104.5z"/>
		<path class="st7" d="M592.4,316.6c-5.2,7.3-10.1,14.8-14.6,22.6c-2.1,3.6-3.9,7.4-5.8,11.1c-0.3,0.5-0.4,1.3-1,1.2
			c-0.8-0.2-0.5-1.1-0.4-1.6c0.9-7.9-0.2-15.5-1.5-23.3c-0.2-1.5-1.3-3-0.2-4.6c1.4,0.2,2.8,0.3,4.2,0.6c2.6,0.6,5.3-0.3,7.1-2.2
			c2.1-2,4.4-3.9,7.5-4.5C589.2,315.5,590.9,315.7,592.4,316.6z"/>
		<path class="st6" d="M395,75.2c0.6,9.2,0.6,18.4,0,27.5c-0.8,0.6-1.5,0.1-2.1-0.4c-4.2-3.5-8.8-6.6-13-10.1
			c-1.3-1.1-1.6-2-0.4-3.3c4.3-4.5,8.8-8.8,13.2-13.1C393.3,75.2,394.1,74.7,395,75.2z"/>
		<path class="st6" d="M348.6,102.8c-0.8-3.3-0.4-6.6-0.4-9.9c-0.1-5.4,0-10.9,0-16.3c0.5-1.8,0.9-2,2.3-0.7
			c4.3,4.1,8.8,8.2,12.9,12.4c2,2.1,2,2.5-0.3,4.3c-4.3,3.3-8.5,6.6-12.9,9.9C349.8,102.8,349.3,103.3,348.6,102.8z"/>
		<path class="st10" d="M348.6,102.8c1.3-0.1,2-1.3,2.9-2c4-3,7.9-6.2,12-9.2c1-0.8,1.3-1.2,0.3-2.2c-4.7-4.5-9.3-9-13.9-13.5
			c-1.2-1.2-1.2,0.2-1.7,0.7c-0.1-2.1,1-3.1,3-3.4c-0.9,0.5-1.4,1-0.3,2c5.8,5.5,11.5,11,17.3,16.6c0.5,0.4,0.9,0.9,1.3,1.4
			c1.5,1.7,2.9,1.7,4.4,0.2l16.8-16.4c0.5-0.6,1.1-1.1,1.7-1.6c1.6-1,0.7-1.5-0.3-2.1c1.8-0.4,2.2,1,3,2.1c-0.7,0.1-1.4,0.4-1.9,0.9
			c-4.5,4.5-8.9,8.9-13.4,13.4c-0.8,0.8-0.7,1.4,0.1,2c4.5,3.5,9,7,13.4,10.5c0.5,0.4,1.1,0.7,1.7,0.7c-0.8,0.5-0.9,1.8-2.1,1.7
			c0.5-0.7,0.3-1-0.4-1.5c-4.7-3.6-9.3-7.2-14-10.8c-0.9-0.7-1.4-0.5-2.1,0.2c-4.4,4.3-4.5,4.3-9.1,0.3c-1.2-1.1-2-1-3.2,0
			c-4.3,3.4-8.6,6.7-13,10c-0.5,0.4-0.9,0.9-1.3,1.4L348.6,102.8z"/>
		<path class="st11" d="M237.3,496.7c2.3-4.8,6.2-8.2,10.1-11.6c1-0.8,2-1.5,3-2.3c1.1-2.5,3.7-3.3,5.6-4.9
			c4.4-3.5,9.6-3.2,14.7-2.8c5.7,0.5,11.4,1.3,17,2.5c0.4,0.1,0.8,0.2,1.2,0.4c3.6,1.8,7.3,1.5,11.1,0.9c11.8-1.9,23.4-4.3,35.1-6.7
			c3.7-0.8,7.6-1.4,11.1-3.1c1.7,0.1,3.3-0.1,5-0.6c6-1.5,12.2-2.4,18.2-3.9c0.9-0.3,1.9-0.6,2.7-1.1c1.4,0.3,2.8,0.2,4.1-0.2
			c7.4-1.8,15.1-2.6,22.8-2.4c7.3,0.2,13.6,5,15.6,12c0.2,1,0.4,2.1,0.5,3.1c0.6,8.3-2.1,13.1-9.7,16.9c-4.3,2.1-9,2.8-13.8,3.4
			c-0.6,0.1-1.3-0.2-1.8,0.4H239.6C238.8,496.8,238.1,496.7,237.3,496.7z"/>
		<path class="st12" d="M456.2,496.8c-4-2.8-5.2-6.7-5.1-11.5c0.2-14.2,0.1-28.3,0-42.5c0-1.9,0.3-2.6,2.4-2.5
			c9.6,0.1,19.2,0.1,28.8,0.1c0.3,0.6,0.3,1.2,0.3,1.9c0,14.4,0,28.7,0,43.1c0,4.5-1.2,8.5-4.9,11.3L456.2,496.8z"/>
		<path class="st13" d="M515.2,442.9c0,2.3,0.4,4.7,1.2,6.8c0.1,4.4,1.3,8.6,2,12.9c1.3,7.8,2.7,15.6,4.1,23.4
			c0.6,3.6,0.9,7.2,2.2,10.7H486c0-0.9,0.8-1.3,1.3-1.8c1.5-1.4,2.6-3.2,3.1-5.2c0.5-1.6,1.7-1.6,3-1.6c3.6,0.1,7.1-1,10-3.1
			c7.7-5.6,9.4-16.2,4-24c-0.8-1.1-1.8-2-2-3.4c2.8-3.7,3.8-8.2,5.8-12.3c0.4-0.8-0.1-2,0.5-2.9C513,442.4,514.2,442.1,515.2,442.9z
			"/>
		<path class="st14" d="M490.8,490c-0.4,3.1-2.5,4.9-4.7,6.7h-8.4c-0.3-0.4-0.2-1,0.2-1.3c0,0,0.1,0,0.1-0.1
			c3.2-2.4,3.9-5.9,3.9-9.6c0-14.3,0-28.5,0-42.8c-0.1-0.9,0-1.8,0.4-2.7c2.5,0,5,0,7.5-0.1c1.2,0,1.3,0.5,1.3,1.5
			c0,3.9,0,7.7,0.1,11.6c1.1,2.1,0.5,4.3,0.5,6.5c0.1,7.3,0.1,14.6,0,21.9C491.8,484.5,492.1,487.4,490.8,490z"/>
		<path class="st15" d="M346.6,469.2c-0.8,2-2.9,1.5-4.3,1.9c-4.9,1.3-9.9,2.2-14.8,3.2s-9.9,1.8-14.8,2.9
			c-5.8,1.2-11.7,2.1-17.6,2.9c-2.1,0.3-3.8-0.9-5.6-1.4c-3.6-1-7.2-1.8-10.9-2.3c-4.6-0.6-9.2-0.9-13.8-1c-3.4,0-6,1.5-8.7,3.1
			c-1.9,1.2-3.7,2.7-5.5,4.1c-1.7-0.9-3.5-0.3-5.3-0.4s-3.8-0.1-5.6-0.1c-0.6-2.8-0.8-5.6-0.7-8.4c0.1-7-0.7-13.9-0.5-20.9
			c0-1.5,0.2-3.3-1.1-4.5c0.3-8.5-4.7-15.3-7.6-22.7c-0.2-0.5-0.5-0.9-0.6-1.3c-0.1-0.2-0.1-0.3-0.1-0.5c0.5,4.1,0.3,8.4,0.7,12.7
			c0.6,7.4,0.5,14.8,1.2,22.1c0.2,1.8,0,3.5,0.1,5.3c-0.1,0.8,0.1,1.6,0.4,2.2c0.2,0.5,0.2,1.1,0,1.7c-1.5,4.6-3.2,9.2-4.8,13.8
			c-0.1,0.3-0.3,0.5-0.5,0.6h-15.5c-3.3-3.9-6.9-7.5-10.7-10.9c-2.4-2.1-5.1-3.7-7.4-5.9c-0.6-0.6-1.6-1.1-0.9-2.2
			c0.8-5,2.9-9.6,4.2-14.5c2.3-8.9,3.8-17.9,5.7-26.8c2.3-10.8,5.2-21.5,8.4-32.1c0.7-2.2,1.9-4.3,1.6-6.7
			c2.9-8.4,5.2-17.1,9.7-24.9c4.3-7.4,10.1-12.9,19.1-13.9c1.8-0.2,3.2-1.4,4.9-1.9c2.7-0.7,5.3-1.6,7.9-2.6
			c0.7-0.4,1.5-0.4,2.2-0.1c0.4,0.4,0.6,1,0.5,1.6c0.4,6.8,2.1,13.4,5.1,19.5c3.1,6.6,7.5,12.1,14,15.6c6.7,3.8,14.8,3.9,21.6,0.2
			c8.6-4.4,14.8-11.2,19.6-19.5c1-1.8,2.2-3.4,3.1-5.2c2.6-5,4.5-10.3,6.9-15.4c0.8-0.5,1.5,0,2.2,0.2c5.4,1.9,10.7,3.7,16,5.8
			c3.5,1,6.8,2.6,10.3,3.5c7.1,2,12,7,16,13c4.2,6.4,7.4,13.3,10.9,20c3,5.8,5.9,11.7,8.6,17.6c2,4.3,3.9,8.6,5.8,12.9
			c0.3,0.8,0.7,1.6,1.2,2.3c0.2,0.6,0.2,1.3,0,1.9c4.2,10.1,7.9,20.4,11.6,30.6c3,7.8,5.1,16,6.3,24.2c0.1,1.5,0.1,3,0.1,4.4
			c-1.4-2.7-3.1-5.1-5.2-7.3c-2.8-2.7-6.6-4.1-10.4-4.1c-8.1-0.3-16.2,0.6-24,2.7c-1,0.3-2.1,0.6-2.8-0.5c-0.7-0.2-0.8-0.7-0.7-1.4
			c0.2-0.7,0.2-1.4,0-2.1c-1.8-8.6-3.4-17.3-5-26c-2.4-13.6-5.6-27-8.3-40.6c-0.8-4.2-1.9-8.5-2.4-12.8c-0.2-0.2-0.4,0.2-0.1,0
			s0.1,0,0.2,0.1c0.5,1.8,0.1,3.5-0.1,5.2c-0.9,7.8-1.9,15.7-3.1,23.5c-0.5,3.5-1.2,7.1-1.7,10.6c-0.2,1.4,0.1,2.8-0.2,4.2
			c-0.4,0.8-0.7,1.7-0.8,2.6c-1.2,9.5-1.7,19-2.5,28.5c-0.2,2,0.1,4.1-0.2,6.1c-0.5,1.7-0.2,3.5-0.3,5.2
			C347.2,467.8,347,468.6,346.6,469.2z"/>
		<path class="st16" d="M395.3,409.7c-1.6-2.1-2.3-4.8-3.4-7.2c-3.5-7.7-7-15.3-10.9-22.8c-3.6-6.9-6.9-14-11.2-20.5
			c-4.5-6.8-10.2-12.1-18.6-13.6c-2.5-0.5-4.8-1.8-7.2-2.8c0.8-1.8,0.1-3.6-0.2-5.4c-0.4-4.3-1.4-8.5-3.1-12.4
			c-2.8-6.2-7.8-9.9-13.8-12.6c-4.6-2.1-8.7-4.9-10.1-10.3c-0.2-0.7-0.5-1.3,0.2-1.9c0.6-0.3,1.2-0.4,1.8-0.3
			c6.6,0.1,11.2-3.2,14.6-8.7c2.6-4.4,3.6-9.6,2.8-14.6c-0.6-3.9-2.7-7.5-5.9-9.9c-1-0.8-2.1-1.4-3-2.2c-0.6-0.8-0.8-1.8-0.6-2.8
			c0.9-11.7,0.2-23.2-3.5-34.3c-3.5-10.5-9.6-18.8-19.9-23.4c-9.8-3.9-20.5-5.3-31-3.8c-3.4,0.5-6.7,1.5-9.9,2.9
			c-0.8,0.4-1.6,1.1-2.5,0.2c-0.2-0.9,0.4-1.3,0.9-1.8c4.8-5.7,11.6-9.3,19-10c13.7-1.7,27.6,0.4,40.1,6.1
			c7.5,3.4,14.4,8.1,20.3,13.8c2.5,2.3,4.7,4.9,6.6,7.8c-4.1-8.4-10.4-15.5-18.4-20.4c-9.1-5.7-19.5-9-30.2-9.7
			c-6-0.5-12.1-0.1-18,1.3c-8.1,1.6-15.3,6-20.6,12.4c-1.3,2.2-2.5,4.5-4.5,6.2c-0.7,0.6-0.7,0.6-1.1-0.4
			c4.8-11.7,14.2-17.7,25.9-20.4c12.5-2.9,24.9-1.5,36.9,2.7c11.5,3.8,21.4,11.2,28.1,21.2c2.1,2.9,3.7,6,4.8,9.4
			c1.4,4.3,2.7,8.6,4.2,12.8c1.2,3.4,1.3,7.1,1.2,10.7c-0.2,5.1,0.6,10.2,2.3,15c2.1,5.3,6.1,9.6,11.1,12.3c2,1.1,4.5,0.9,6.8,1.3
			c7.6,1.5,15.1,3.4,21.5,8.1c5.3,3.8,9.1,8.8,10.4,15.4c0.5,2.8,0.1,5.7-1.2,8.2c-1.7,3.6-3.2,7.2-4.4,11
			c-1.6,4.8-0.8,9.3,1.5,13.7c2.9,5.4,7.4,9.6,11.1,14.3c5,6.3,9.9,12.7,11.4,20.9c2.2,11.8,2.1,23.4-4.9,33.8
			c-5.2,7.9-12.9,12.2-21.8,14.5c-0.8,0.2-1.6,0.4-2.5,0.6c-0.4-0.5-0.5-1.2-0.1-1.7c0.7-0.9,1.7-0.9,2.7-1.1
			c9.9-2.7,17.7-8.1,22.3-17.6c2.2-4.4,3.3-9.4,3.2-14.3c-0.1-3.2,0.4-6.3,0-9.5c-0.1-0.8-0.3-1.7-0.5-2.5
			c1.2,5.2,0.5,10.3-0.9,15.4c-3.6,14-13.1,22.2-26.1,27.2C396.7,409.8,396,409.9,395.3,409.7z"/>
		<path class="st17" d="M244.9,342.9c-2.5,1.9-5.6,2-8.4,2.8c-5,1.3-8.7,4.3-11.9,8.2c-4.8,5.9-7.2,12.9-9.7,19.9
			c-1,2.9-2,5.7-2.9,8.6c-0.1,0.5-0.4,0.8-0.8,0.8c-3.8-8-3.7-15.8,0.2-24c3.2-6.8,2.4-13.9-1.1-20.6c-1.7-3.3-3.6-6.5-4.7-10.1
			c-2.2-7.2-1.2-13.7,4.1-19.2c3-3.1,6.3-5.8,9.2-9c3.4-3.6,5.8-8.1,6.7-13c0.8-4.1-0.1-8.3-2.5-11.6c-2.6-3.9-5.8-7.2-8.4-11.1
			c-7-10.9-3.9-26.7,6.8-34.1c5.5-3.7,11.7-6.3,18.1-7.6c5.4-1,10.2-4.4,12.9-9.3c3.7-6.6,10.1-8.3,16.8-8.9
			c8.5-0.8,17.1,0,25.3,2.4c7.1,2.1,12.2,6.7,16.3,12.7c5.3,7.9,8,16.8,9.3,26.1c0.7,5.7,1.3,11.4,0.2,17.1
			c-0.2,0.4-0.7,0.7-1.2,0.8c-4.3,1.1-7.4,3.8-9.7,7.4c-0.4,0.7-0.9,1.2-1.7,1.5c-0.6,0-1.2-0.3-1.6-0.8c-2.6-2.2-5.7-3.9-8.9-5
			c-10-3.8-20.2-7.3-29.5-12.8c-5.6-3.3-11.2-6.4-15.8-11.2c-1.3-1.6-2.5-3.2-3.6-4.9c-0.4-1.2-1.8-1.9-3-1.5
			c-5.8,0.8-10.8,4.6-13,10c-1.2,2.9-1.6,6.1-1.1,9.2c0.7,4,1.9,8,3.7,11.7c0.3,0.5,0.7,1,1.2,1.5c0.1,0.6,0,1.1-0.3,1.6
			c-4.5,8.2-2,20.3,5.5,26.9c1,0.8,2.1,1.5,3.2,2c0.6,0.4,1.5,0.4,1.8,1.4c-0.7,0.5-0.6,1.3-0.8,2c-1.5,5.1-3.2,10-4.7,15.1
			c-2.2,7.3-1.7,14.3,2.4,20.8C244.1,339.6,244.7,341.2,244.9,342.9z"/>
		<path class="st18" d="M288.7,104.9c-0.1,0.7,0.2,1.4,0.8,1.9c3.1,2.5,5.9,5.2,8.6,8.2c3,3.2,5.7,6.6,8.9,9.7l-0.4,0.5
			c-2.4-1.2-4.7-2.4-7-3.8c-5.7-3.2-11.2-6.6-16.8-9.9c-4.4-2.6-8.8-5.1-13.2-7.7c-2.9-1.7-6.1-2.6-9.1-4c-5-2.3-10.3-3.9-15.7-4.9
			c-10.6-1.8-21.4-1.4-31.8,1.1c-5.6,1.3-11.1,3.3-16.2,5.9c-6.2,3.1-12.1,7-17.4,11.5c-3.2,2.8-6.2,5.8-9,9.1
			c-5.8,6.7-10.7,14-14.8,21.8c-3.1,5.9-5.5,12-7.3,18.4c-2,7.4-3.5,15-4.6,22.6c-0.6,4.4-1.1,8.9-2.1,13.3
			c-1.5,6.6-2.6,13.3-4.8,19.7c-1.5,4-3.2,7.9-5.2,11.7c-0.3,0.4-0.6,0.7-0.9,1.1c-0.6-0.9-0.1-1.6,0.2-2.2
			c2.7-7.2,4.7-14.7,5.9-22.3c0.9-5.3,0.8-10.8,1.9-16.1c0.6-3.1,0.3-6.3,0.5-9.5c0.4-6.3,1.4-12.5,2-18.8c0.6-4.7,1.5-9.4,2.8-14
			c1-3.3,2.2-6.5,3.6-9.7c1.8-4.5,4.1-8.9,6.7-13.1c3.2-5.2,6.8-10.1,10.9-14.7c3.8-4.3,8-8.3,12.5-11.8c3.7-2.9,7.7-5.5,11.9-7.8
			c4.6-2.5,9.4-4.6,14.3-6.2c5.7-2,11.7-3.1,17.8-3.3c8.3-0.2,16.5,0,24.6,2.1c6.6,1.8,13,4.1,19.3,6.9c5.6,2.6,10.5,6.1,15.7,9.3
			c1.9,1.2,3.7,2.5,5.4,4.1C286.8,104.7,287.8,105,288.7,104.9L288.7,104.9z"/>
		<path class="st6" d="M230.5,127.8h23.2c2.9,0,3.8,0.9,3.8,3.8c0,9.9,0,19.8,0,29.7c0,3.1-1.1,4.2-4.2,4.2c-4.1,0-8.1,0.1-12.2,0
			c-1.1-0.1-2.2,0.5-2.8,1.4c-2.2,3-4.4,5.9-6.5,8.9c-0.9,1.2-1.5,1.2-2.4,0c-2.1-2.9-4.2-5.8-6.2-8.7c-0.7-1.2-2-1.8-3.3-1.7
			c-3.9,0.1-7.7,0.1-11.6,0c-3.6,0-4.6-1.1-4.6-4.7c0-9.7,0-19.5,0-29.3c0-2.8,1-3.8,3.8-3.8L230.5,127.8z"/>
		<path class="st5" d="M493.7,364.5c-0.3-2.6-0.1-5.1,0.7-7.6c1.2-4.6,0.8-8.9-1.9-12.9c-1.3-2-2.9-3.8-4.3-5.7
			c-2-2.4-3.6-5.2-4.5-8.2l0.3-0.1c3.8,0.3,7.5,1.1,11.1,2.2c5.6,1.5,11.2,3.4,16.5,5.8c4.2,1.8,8.3,3.8,12.2,6.2
			c0.7,0.4,1.4,0.9,2.2,1.3c2.2,1,3.7,3.2,3.8,5.6c0.4,2.9,1.1,5.8,1.6,8.7c1.3,7,2.3,14.1,3.2,21.1c0.1,0.9,0.3,1.9-0.7,2.5
			s-1.7-0.2-2.5-0.7c-5.4-4.4-11.3-8.2-17.5-11.3c-5.7-2.9-11.7-5.2-17.8-7c-0.8-0.2-1.6-0.7-2.3,0.1L493.7,364.5z"/>
		<path class="st5" d="M483.6,330.1c-1.3-4.7,0.3-8.5,3.3-12c2-2.4,3.6-4.9,3-8.2c-0.6-2.5-1.6-4.8-3.1-6.9
			c-2.3-3.3-4.2-6.9-5.8-10.7l0.3-0.1c4.7,1.3,9,3.6,13.3,5.8c6,3.1,11.9,6.4,17.5,10.1c2.6,1.7,5.2,3.4,7.6,5.3
			c1.1,0.7,1.8,1.8,2.2,3c2.1,8.7,4.3,17.4,6.2,26.2c0.2,0.9,0.5,1.9-0.5,2.5s-1.8-0.1-2.5-0.5c-7.4-4.4-15.2-7.9-23.3-10.6
			c-5.1-1.7-10.2-3-15.5-4.1C485.4,329.7,484.5,329.4,483.6,330.1L483.6,330.1z"/>
		<path class="st6" d="M460.9,298.1c0.2,4.5-2.1,7.6-4.5,10.8c-3.6,4.6-8.2,8-12.9,11.3c-1.6,1.2-2.8,1.4-4.6,0.2
			c-5.1-3.3-9.8-7-13.5-11.9c-2.8-3.6-5.3-7.5-4.2-12.5c1-5.3,6.1-8.9,11.4-7.9c1.4,0.3,2.7,0.8,3.9,1.6c0.1,0.1,0.2,0.2,0.3,0.3
			c1.5,0.8,2.5,3.1,4.2,2.9s2.9-1.9,4.2-2.9c3.5-2.8,8.4-2.8,11.9-0.1C459.4,291.8,461.2,294,460.9,298.1z"/>
		<path class="st5" d="M491.5,274.5c1.2-0.3,2.4-1.4,3.5,0.5c0.7,1.1,2.4,0.3,2.5-1.1c0-1,0.1-2,0.4-2.9c0.4-0.9,0.1-1.4-0.9-1.6
			s-1.2,0.2-1.2,1c0,0.6-0.3,1.1-1,1.1s-0.9-0.6-1-1.2c-0.2-1.2-0.1-2.4,0.3-3.5c0.7-2.5,0.7-5.2,2.1-7.5c1.2-2,2.9-2,4,0
			c0.3,0.7,0.8,1.3,1.5,1.7c1.3,0.1,1.5,1.2,1.8,2c3.6,8.3,7,16.6,9.9,25.2c2.3,6.7,4.3,13.6,6.3,20.4c0.3,1.1,1.1,2.5-0.1,3.3
			s-2.2-0.4-3.2-1c-9.5-6.7-19.6-12.4-30.2-17.1c-0.8-0.3-1.5-0.8-2.2-1.2c-1-0.4-1.9-0.9-3-0.3l-0.1,0.1
			c-1.8-4.5-1.3-11.5,4.5-14.1C487.7,277.4,489.5,275.8,491.5,274.5z"/>
		<path class="st19" d="M319.8,263c1.1-14.2-0.9-27.9-7.9-40.5c-5.4-9.8-13.8-15.3-24.9-16.7c-6.6-0.9-13.1-1.4-19.7-0.4
			c-5.7,0.9-10.9,2.8-14.4,7.7c-0.1,0.1-0.3,0.3-0.5,0.4c0.9-1.6,0.5-3.6,1.6-5.1c0.1,0.6,0.2,0.6,0.7,0.1c1.8-1.8,2.9-4.1,4.5-6
			c0.3,0,0.5,0.2,0.7,0.3c0.3,0.8,0.7,0.4,1.2,0.1c9.4-4.8,19.3-4.8,29.4-3.3c6.3,1,12.4,2.6,17.8,6.1c6.7,4.3,11.2,10.5,14.2,17.9
			c3.5,8.6,4.8,17.6,5,26.9c0.2,3.7,0.1,7.5-0.3,11.2c-0.1,0.8,0,1.7,0.4,2.5C325,263.7,322.4,263.7,319.8,263z"/>
		<path class="st18" d="M92.9,374.5c-1.5,0.2-3.1,0.2-4.6,0c-3.2-1.2-5.1-4-7.6-5.9c-4.9-3.7-9.1-8.3-12.4-13.5
			c-3.6-5.9-5.9-12.5-6.6-19.3c-0.7-6.6-0.4-13.2,1.1-19.7c0.7-2.9,1.6-5.7,2.6-8.4c2.5-7.2,6.4-13.5,10.7-19.7
			c0.5-0.8,1.3-2.2,2-1.7c1.1,0.8-0.3,1.7-0.7,2.4c-3,5.5-5.3,11.2-7,17.2c-1.9,6.4-2.8,13-2.7,19.7c0.1,6.7,1.7,13.3,4.5,19.4
			c3.4,7.3,8.3,13.5,13.3,19.7c2.2,2.8,4.2,5.7,6.9,8.1C92.9,373.2,92.8,373.9,92.9,374.5z"/>
		<path class="st6" d="M132.4,277.5c6.5,0,13.1,0,19.6,0c0.7,0,1.6-0.3,1.8,0.6c0.2,0.7-0.6,1-1,1.5c-4.4,4.4-8.8,8.8-13.3,13.2
			c-1.9,1.8-3.8,3.6-5.7,5.3c-1.2,1.1-2.3,0.6-3.2-0.3c-4.8-4.6-9.5-9.3-14.3-13.9c-1.4-1.4-2.9-2.7-4.3-4c-0.5-0.5-1.5-0.9-1.2-1.8
			s1.3-0.6,2.1-0.6L132.4,277.5z"/>
		<path class="st6" d="M110.9,308.2c1.4-1.8,3.3-2.9,5-4.2c3-2.4,6.1-4.7,9.1-7.1c1.1-0.9,2-1.2,2.9,0.2c0.4,0.5,0.8,0.9,1.3,1.4
			c1.9,1.9,4.1,2,6.2,0.2c0.8-0.7,1.5-1.5,2.2-2.2c0.3-0.5,0.9-0.6,1.4-0.4c0.1,0.1,0.2,0.1,0.2,0.2c4.4,3.5,8.9,7,13.4,10.5
			c0.5,0.4,1.4,0.8,1.1,1.6s-1.2,0.5-1.9,0.5h-38.2C112.8,308.9,111.8,308.7,110.9,308.2z"/>
		<path class="st20" d="M491.2,459.9v-6.5c5.1-0.6,10.3,0.9,14.3,4.3c4.7,4.9,6.8,10.6,5.2,17.4c-1.7,8.2-9.1,14-17.4,13.6
			c-1.1,0-2.3-0.2-2.5,1.3c0.4-2.7,0.5-5.4,0.4-8.1c1.5-0.5,3.2,0,4.7-0.4c5.2-1.1,9.1-6.3,8.5-11.4c-0.6-5.6-5.3-9.9-11-9.8
			C492.7,460.2,492,460.5,491.2,459.9z"/>
		<path class="st11" d="M191.2,463.2c0.5,2.1,2.4,3,3.9,4c3.5,2.4,6.4,5.4,9.6,8.2c1.7,1.5,2.9,3.6,4.9,5c0.7,0.3,0.9,1.1,0.6,1.8
			l-21.2,0.1c-0.7,0-1.4,0.1-1.6-0.9c-1.2-6.6-2.9-13.2-3.7-19.9c1.5,0.5,3,1,4.5,1.4C189.2,463.2,190.2,463.8,191.2,463.2z"/>
		<path class="st6" d="M109,293c0-3.7,0-7.5,0-11.2c0-0.8-0.4-1.8,0.4-2.2s1.2,0.6,1.8,1.1c4.4,4.2,8.7,8.5,13.2,12.7
			c1.1,1,1,1.6-0.1,2.4c-4.3,3.3-8.6,6.7-12.9,10c-0.5,0.4-1,0.9-1.7,0.6s-0.6-1.1-0.6-1.7C109,300.9,109,297,109,293z"/>
		<path class="st6" d="M155.8,293.2c0,4,0,8,0,12.1c0,0.5,0.2,1.2-0.4,1.5s-1.1-0.3-1.4-0.6c-4.6-3.5-9.2-7.1-13.7-10.7
			c-1.1-0.9-0.3-1.4,0.3-2c3.9-3.8,7.8-7.7,11.8-11.4c1-0.9,1.8-3,3-2.5s0.4,2.5,0.5,3.9C155.9,286.7,155.8,289.9,155.8,293.2
			L155.8,293.2z"/>
		<path class="st18" d="M508,255.5c-0.1,0-0.3,0-0.4-0.1c-0.9-2.2,0.4-4.2,0.7-6.3c1-6.1,1.2-12.3,0.7-18.5c-0.2-2.5-0.8-4.8-1-7.3
			c-0.1-1.3,0.3-1.9,1.7-1.9c5.5-0.1,5.3-0.2,5.5,5.3c0.2,6.7-0.6,13.3-2.3,19.8c-0.7,2.8-2.2,5.4-3.3,8.2
			C509.3,255.7,508.7,255.6,508,255.5z"/>
		<path class="st21" d="M531.7,426.7c-5.4,0.1-10.7,0.2-16.1,0c0.5-5.6,1.3-11.1,0.7-16.8c-0.1-0.5,0.3-0.9,0.8-1c0,0,0.1,0,0.1,0
			c5.6,4.9,9.5,11.3,14.2,17C531.6,426.2,531.7,426.5,531.7,426.7z"/>
		<path class="st22" d="M448.6,167.2h36.9c3.1,0,3.6,0.6,3.6,3.8c0,0.6,0,1.3,0,1.9c-0.1,2.1-1.2,3.1-3.2,3.2c-2.2,0.1-4.5,0-6.7,0
			h-66.4c-4.4,0-6.6-3.9-4.5-7.8c0.7-1.2,1.9-1.1,3-1.1c5.3,0,10.5,0,15.8,0L448.6,167.2L448.6,167.2z"/>
		<path class="st23" d="M481.5,155.9c-12.4,0-24.7,0-37.1,0c-3.5,0-3.8-0.5-3.8-4.9c0-2.9,0.8-3.7,3.9-3.7h73.4c1.6,0,3.3,0,3.8,1.8
			c0.7,2,0.5,4.3-0.5,6.1c-0.6,0.9-1.6,0.7-2.5,0.7C506.2,155.9,493.8,155.9,481.5,155.9L481.5,155.9z"/>
		<path class="st24" d="M436.7,194h-24.9c-3.2,0-3.8-0.4-3.8-3.6c0-3.8-0.6-5.3,4.8-5.3c15.8,0,31.5,0,47.2,0c0.9,0,1.8,0,2.7,0.1
			c1.3,0.1,2.3,1.2,2.3,2.5c0,0,0,0,0,0c0.1,6.4,0.3,6.2-5.7,6.2C451.7,194,444.2,194,436.7,194z"/>
		<path class="st25" d="M508.6,167.2c3.4,0,6.9,0.1,10.3,0c1.9,0,2.7,0.9,2.9,2.6c0.1,0.8,0.1,1.7,0,2.5c-0.1,2.7-0.8,3.6-3.5,3.7
			c-6.6,0.1-13.2,0.1-19.8,0c-3-0.1-3.8-1.6-3.5-5.6c0.2-2.6,0.8-3.2,3.4-3.2C501.8,167.2,505.2,167.2,508.6,167.2L508.6,167.2z"/>
		<path class="st23" d="M421.2,155.9c-3.4,0-6.9,0-10.3,0c-2.3,0-2.8-0.6-2.9-2.9c0-0.3,0-0.6,0-0.9c0-4.6,0.3-4.9,4.7-4.9
			c6,0,12,0,17.9,0c3.3,0,4,0.7,4,3.9c0,0.7,0,1.4,0,2.1c-0.1,1.6-0.8,2.6-2.6,2.6C428.4,155.9,424.9,155.9,421.2,155.9L421.2,155.9
			z"/>
		<path class="st26" d="M237.2,448.4c0.6-0.8,1.1-0.8,1.2,0.3c0.2,1.9,0.4,3.8,0.5,5.7c0.3,8.2,0.6,16.5,0.8,24.7
			c0,1-0.1,2.1-0.2,3.2h-13.7c1-4.5,3.1-8.8,4.4-13.3c0.4-0.9,0.7-1.8,0.8-2.8c-0.2-0.7-0.2-1.4,0.1-2c1.5-4.5,3-9.1,4.7-13.5
			C236,449.8,236.5,449,237.2,448.4z"/>
		<path class="st27" d="M481.1,292.3c-0.1-1,0.2-1.2,1.2-0.9c2.4,0.6,4.5,1.9,6.7,2.9c8.4,3.9,16.5,8.4,24.2,13.5
			c1.7,1.1,3.4,2.2,5,3.4c0.4,0.3,0.8,0.8,1.3,0.5s0.3-1,0.2-1.5c-1.5-4.9-2.8-9.8-4.3-14.7c-2.4-7.7-5.1-15.3-8.2-22.7
			c-1.7-4-2.9-8.2-5.4-11.8c0.1-1.2-0.8-2.1-1.3-3.1c-0.3-0.6-1.1-1.3-0.3-1.8c0.9-0.6,1.3,0.3,1.7,1c1,1.9,1.8,3.8,2.6,5.8
			c1.3,3.8,3.3,7.2,4.6,11c1.9,5.6,4.1,11.1,6,16.7c2.1,5.7,3.8,11.5,5.2,17.3c0.2,0.7,0.5,1.3,0.9,1.9c0.7-4,1.4-7.6,2-11.2
			c1-5.9,2.5-11.7,4.5-17.3c1.3-3.6,2.7-7.1,4-10.7c0.3-0.7,0.5-1.7,1.5-1.4s0.3,1.2,0,1.9c-3,6.8-5.4,13.8-7.1,21.1
			c-1.7,7-2.9,14.1-3.5,21.3c0,1.3,0.2,2.7,0.6,3.9c1.8,8,3.7,16,5.5,24c0.2,0.7,0.4,1.3,0.6,2.3c2-3.5,4-6.7,5.8-10
			c2.4-4.1,5.2-8,8.3-11.6c3.2-4,6.6-7.7,10.3-11.3c0.4-0.4,0.8-1,1.5-1c0.2,1-0.2,2-1.1,2.6c-5.6,5.3-10.6,11.2-14.9,17.6
			c-3.3,4.8-6.3,9.8-8.7,15.1c-0.6,1.3-0.7,2.7-0.3,4.1c2.1,10,3.8,20,5,30.5c1.5-1.4,2.8-3,4-4.7c1.5-2.5,3.1-4.9,4.8-7.1
			c1.3-1.6,1.1-3.2,0.7-5.3c-0.9-4.2-0.7-8.5,0.5-12.6c2.5,2.5,3.9,5.3,5.4,8c2.4,4.3,4.5,8.9,6.2,13.5c0.9,2.4,1.9,4.8,1.8,7.5
			c0,2.1-1.2,3.8-2,5.5c-2.3,5.7-4.3,11.6-6.3,17.5c-0.2,0.3-0.4,0.7-0.6,1c-0.6-2-1-3.8-1.6-5.5c-1.4-4.5-3.9-8.5-6.2-12.6
			c-0.9-1.5-1.8-3-2.7-4.5c-0.2-0.3-0.3-0.7-0.8-0.5c-0.4,0.1-0.6,0.6-0.4,0.9c0,0,0,0,0,0.1c0.3,0.8,0.6,1.5,1.1,2.2
			c3.7,5.1,6.5,10.8,8.4,16.8c1.2,3.4,1.3,7.1,0.3,10.5c-1.4,4.6-2.5,9.4-3.5,14.1c-0.1,1.3-1.2,2.3-2.5,2.2c-2.1,0.1-4.2,0-6.3,0
			c-0.8,0.1-1.6-0.4-1.9-1.1c-1.5-4.2-3.7-8.2-4-12.7c-0.3-3.8,0.6-7.1,3.9-9.6c1.9-1.5,2.5-3.4,2.3-6.1c-0.3-3.8-1.7-7.2-2-11
			c-0.1-1.7-1.8-2.2-2.8-3c-2.5-2-5.1-3.9-7.9-5.6c-4.9-3.2-10-5.9-15.3-8.2c-4.6-1.9-9.2-3.6-14-5c-0.1-1.2,0.4-1.2,1.4-1
			c5,1.4,9.9,3.2,14.7,5.3c5,2.2,9.9,4.8,14.4,7.8c2.7,1.6,5.3,3.5,7.6,5.7c0.5,0.5,1,1.1,1.8,0.7s0.5-1.3,0.4-1.9
			c-1.2-8.8-2.5-17.5-4.1-26.2c-0.4-1.7-0.8-3.4-1-5.2c-0.1-1.3-0.9-2.5-2-3.1c-7.4-4.5-15.1-8.2-23.2-11.1
			c-6.4-2.2-12.9-3.9-19.6-5.1c-0.2-0.1-0.4-0.2-0.5-0.3c-0.2-1.2,0.5-1.3,1.4-1.1c5.6,1.4,11.1,2.5,16.6,4.4
			c8.5,2.8,16.6,6.5,24.3,11.1c0.5,0.3,1,0.6,1.5,0.3s0.3-1,0.2-1.5c-2.1-9-4.1-17.9-6.2-26.8c-0.4-1.2-1.3-2.2-2.4-2.9
			c-9.4-6.7-19.3-12.5-29.8-17.5C486.6,294.8,483.8,293.6,481.1,292.3z"/>
		<path class="st9" d="M557.8,427.2c-3,0.8-6,0.2-9,0.3c-1.2,0-2.5,0.5-3.6-0.4L557.8,427.2z"/>
		<path class="st28" d="M72.3,227.9c0.2-1.2,0.5-2.6,2.2-2.5c1.4,0.1,2.5,0.8,2.5,2.5c0.1,1.3-0.9,2.4-2.2,2.4c-0.1,0-0.3,0-0.4,0
			C72.9,230.4,72.3,229.4,72.3,227.9z"/>
		<path class="st29" d="M54.2,227.5c0,1.8-0.7,2.8-2.1,2.9c-1.2,0.2-2.3-0.6-2.5-1.8c0-0.1,0-0.3,0-0.4c0-1.5,0.8-2.7,2.3-2.7
			C53.1,225.5,54.4,225.9,54.2,227.5z"/>
		<path class="st30" d="M65.6,227.9c-0.2,1.4-0.9,2.5-2.4,2.4c-1.2,0-2.3-0.9-2.3-2.1c0,0,0-0.1,0-0.1c-0.2-1.3,0.8-2.5,2.1-2.6
			c0.1,0,0.2,0,0.3,0C64.8,225.4,65.5,226.5,65.6,227.9z"/>
		<path class="st31" d="M346.8,462.1c0.3-9,1-18.1,1.9-27.1c0.3-3.2,0.8-6.4,1.2-9.6c0.1-0.5,0-1.1,0.8-0.6c1.2,0.5,1.6,1.7,2.2,2.7
			c5.7,9.9,11.6,19.8,16.8,30c0.8,1.6,2.2,3,2,5c0.2,0.4,0.4,0.9,0.6,1.3c-0.2,1.1-1.2,1-2,1.2c-7.4,1.6-14.8,3.2-22.2,4.9
			c-0.6,0.2-1.2-0.1-1.6-0.6V467C346.9,465.3,346.6,463.7,346.8,462.1z"/>
		<path class="st32" d="M459.1,459.5c0,4.4,0,8.8,0,13.1c0,1.6-0.3,3.2-2.2,3.2c-1.7,0-2.1-1.5-2.1-3.1c0-8.6,0-17.2,0-25.9
			c0-0.6,0-1.1,0.1-1.7c0.3-1.1,1.4-1.7,2.5-1.5c1.2,0.1,1.6,0.8,1.6,2C459.1,450.4,459.1,454.9,459.1,459.5z"/>
		<path class="st33" d="M491.2,459.9c4.5-1.2,9.3,0.7,11.8,4.6c2.7,3.9,2.7,8.1,0.4,12.2c-2.4,4.3-7.5,6.4-12.2,5.1
			C491.2,474.6,491.2,467.2,491.2,459.9z"/>
		<path class="st11" d="M325.8,336.5c0,2.7-1.8,4.8-2.6,7.2c-1.4,3.8-3.2,7.5-5.3,11c-2.6,4.9-5.8,9.5-9.7,13.5
			c-5.4,5.4-11.3,10-19.3,11.2c-5,0.7-10-0.2-14.4-2.5c-4.9-2.5-9-6.4-11.8-11.1c-3.5-5.7-5.9-12-7-18.5c-0.4-2.5-0.5-5-0.8-7.5
			c0.2-1,1.1-1,1.8-1.3c3.5-1.3,7.2-2.5,10.8-3.4c2.8-0.8,6-4.9,6-7.7c0-0.8-0.4-1-1-1.1c-11.4-3.5-17.8-12.3-23.2-22.1
			c-0.7-1.3-1.3-2.6-2-4c-4.5-10.5-6.9-21.7-6.8-33.1c0-0.8,0-1.6-0.1-2.3c0.3-4.5,0.9-8.9,1.9-13.3c0.1-0.8,0.5-1.6,1-2.3
			c0.7-0.7,1.4-0.5,2,0.2c6.1,6.8,14.5,9.4,22.7,12.4c6,2.1,12.2,3.8,18.5,5c3.8,0.8,7.7,1.6,11.5,2.3c3.4,0.6,6.8,1.7,9.5,4.2
			c0.4,0.9-0.1,1.6-0.4,2.4c-1.3,3.6-1.8,7.5-1.4,11.4c0.6,4.8,2.7,8.7,7,11.1c0.3,0.2,0.6,0.4,0.7,0.8c-1.5,4.1-3.6,8-6.1,11.6
			c-6.9,10-16,16.2-28.6,16.8c9,4.3,17.8,4.6,26.2-1.3c0.9-0.6,1.7-1.6,3-1.2c1.3,1.2,1.2,3,1.6,4.5c0.3,1.5,1.6,2.7,3.1,2.9
			c4,0.8,7.9,1.8,11.7,3.2C324.9,335.6,325.6,335.7,325.8,336.5z"/>
		<path class="st34" d="M325.8,336.5c-4.4-1.7-9-3-13.7-3.8c-1.5-0.1-2.7-1.2-3-2.6c-0.4-1.7-0.9-3.4-1.4-5.1
			c-1.3-1.5-1-3.5-1.2-5.2c-0.6-3.2-0.4-6.5,0.3-9.6c2.1-3.1,4-6.4,5.4-9.9c0.2-0.5,0.2-1.1,0.9-1.3c1.4-0.3,2.9,0.2,3.9,1.3
			c0.4,3.2,2,6.2,4.6,8.2c2.4,1.8,5.1,3.4,7.9,4.6c8.2,3.8,12.4,10.5,14,19.1c0.7,3.2,1.1,6.3,1.3,9.5c0,0.8,0,1.2-0.9,1.1
			L325.8,336.5z"/>
		<path class="st34" d="M247.8,300.4c2.3,4,4.2,8.3,7.1,11.9c4.9,6.2,10.3,11.8,18.4,13.5c0.9,0.2,0.9,0.6,0.8,1.3
			c-0.7,2.4-1.8,4.8-3.1,6.9c-0.7,1.1-2.2,1.1-3.4,1.5c-4.3,1.1-8.6,2.5-12.8,4.2c-3.4,0.9-6.5,2.5-10,3.1c-3-5.5-6.5-10.9-6.3-17.5
			c0-2.1,0.3-4.2,0.9-6.2c1.8-6.1,3.9-12.1,5.8-18.2c0.3-0.8,0.7-0.3,0.9-0.5C246.6,299.9,247.3,299.9,247.8,300.4
			C247.8,300.4,247.8,300.4,247.8,300.4z"/>
		<path class="st35" d="M371.7,462.4c-6.5-12.7-13.5-25.1-21-37.3c0-0.1-0.1-0.3-0.1-0.4c-0.7-4.9,0.6-9.6,1.4-14.3s1.4-9.7,2-14.6
			c0.5-4.3,1-8.6,1.5-12.9c0.1-0.9,0.2-1.8,0.3-3.1c0.8,1.8,1.3,3.8,1.5,5.8c1.2,6.7,2.7,13.3,4.1,20c2.9,13.1,5.3,26.4,7.8,39.6
			c1,5.4,2.1,10.9,3.2,16.3C372.6,462.3,372.7,462.7,371.7,462.4z"/>
		<path class="st35" d="M237.2,448.4c-2.1,5.9-4.2,11.9-6.3,17.8c-0.9,0.4-0.9-0.3-0.9-0.9c-0.1-3-0.2-6-0.3-9
			c-0.2-4.5-0.4-9-0.6-13.5c-0.4-6.4-0.4-12.8-1.1-19.1c-0.1-0.5,0-1.1,0-2c1.7,1.1,1.8,2.9,2.3,4.2c2.3,5.3,5,10.5,6.8,16
			C237.9,444,238,446.3,237.2,448.4z"/>
		<path class="st36" d="M395.3,409.7c8.2-3.1,15.8-7.1,21.2-14.3c6.1-8.1,8.4-17.2,7.8-27.2c0-0.8-0.1-1.5-0.1-2.6
			c5.2,23.4-5,42.1-27.5,46.4C395.4,411.7,395.6,410.6,395.3,409.7z"/>
		<path class="st37" d="M346.8,462.1c0.2,1.6,0.2,3.3-0.2,4.9C346.4,465.3,346.5,463.7,346.8,462.1z"/>
		<path class="st19" d="M317,300.3l-3.9-1.3c-6.3-3-8.6-9.9-8.1-16c0.3-3.4,1.1-6.6,2.3-9.8c-0.2-0.5,0.1-0.6,0.4-0.8
			c1.7-2.5,3.4-5.1,6-6.9c1.8-1.3,3.9-2.2,6.1-2.5c2.7-0.2,5.4-0.3,7.8,1.3c4.8,2.2,8.1,6.6,9.1,11.7c1.7,9.1-2.6,18.4-10.6,22.9
			C323.1,300.5,320.1,300.5,317,300.3z"/>
		<path class="st38" d="M260,202.9c-0.4,0.2-0.7,0.4-0.7-0.3c4.8-6.7,11.5-10.6,19.2-12.4c19-4.6,36.8-1.1,53,9.9
			c7.4,5,14.5,14.4,16.8,21.6c-2.3-2.9-4.2-5.4-6.3-7.7c-7.7-8.3-17.3-14.5-28-18.3c-10-3.6-20.7-5-31.3-4.1
			C273.6,192.2,265.8,195.6,260,202.9z"/>
		<path class="st39" d="M405,294.6c-3.9-8-11-12-18.8-15.1c-3.6-1.4-7.1-2.8-10.7-4.2C387.6,276.4,402.3,283.5,405,294.6z"/>
		<path class="st40" d="M307.7,272.5l-0.4,0.8c-2.1-0.6-3.9-2.1-6-2.8c-2.8-0.9-5.6-1.2-8.4-1.8c-7.9-1.7-15.8-3.3-23.5-5.9
			c-5-1.6-9.8-3.5-14.6-5.7c-3.8-1.8-7.2-4.3-10-7.5c-0.3-0.4-0.5-0.8-1.1-0.5c-0.8-1.7,0.3-3.1,0.8-4.6c0.9-2.1,2-4.2,3.1-6.1
			c0.2-0.4,0.5-0.9,1.1-0.8c1.5,1.2,2,3.1,3.4,4.5c4.9,5.1,11,8.6,17.1,12c8.8,5,18.3,8.4,27.7,11.9
			C300.8,267.3,304.6,269.5,307.7,272.5z"/>
		<path class="st34" d="M248.6,237.6c-2,3.7-4.3,7.2-5,11.5c-1.5,4.4-2,8.9-2.4,13.5c0.1,0.8-0.1,1.5-0.5,2.2
			c-1.3,1.6-2.9,2.9-4.7,3.9c-0.6,0-1.1-0.1-1.4-0.7c-2-5-4.2-9.9-4.1-15.5c0.2-9.4,6.8-15.6,15.1-16.9
			C247.3,235.3,248.4,235.7,248.6,237.6z"/>
		<path class="st19" d="M235.9,268.6c1.3-1.6,2.8-2.9,4.7-3.9c0.3,0.3,0.5,0.7,0.4,1.1c-0.2,11.6,2.1,23,6.6,33.7
			c0.1,0.3,0.2,0.5,0.2,0.8h-1.6C233.9,296.5,229.2,278,235.9,268.6z"/>
		<path class="st41" d="M214.9,352.7c0.5-7.1-2.1-13.2-5.5-19.3c-2.4-4.3-3.8-9.1-3.1-14.2c0.4-2.5,1.4-4.9,2.9-6.9
			c2.3-3,5.1-5.6,8.2-7.8c-0.8,1.4-1.7,2.7-2.5,4c-4,6.6-4.2,13.3-0.9,20.2c1.1,2.4,2.2,4.9,3.3,7.3
			C219.9,342,218.8,347.5,214.9,352.7z"/>
		<path class="st42" d="M224.6,274.4c-3.4-4.4-7.4-8.3-9.9-13.3c-5.7-11.2,0.4-27.4,12.4-31.8c-6.4,5.5-10.1,13.5-10.1,22
			C216.8,259.8,220.5,267.1,224.6,274.4z"/>
		<path class="st43" d="M214,143.9c0.1-2.2,0.6-4.1,2.4-4.9s4.2-1,5.9,0.8c1,1,1.8,1.4,2.9,0.2c1.8-1.7,4.5-2,6.6-0.8
			c1.9,1.6,2.5,4.3,1.5,6.5c-1.8,4.1-5.5,6.5-9,9c-0.3,0.2-0.7,0.1-1-0.1c-3.3-2.5-6.8-4.8-8.7-8.7
			C214.3,145.3,214.2,144.6,214,143.9z"/>
		<path class="st30" d="M244.8,145.8c0,1.5,0,3,0,4.4c0,0.9-0.3,1.3-1.2,1.3s-1.4-0.4-1.3-1.4c0-1.8,0-3.5,0-5.3
			c0-0.9,0-1.7-1.2-0.8c-0.4,0.4-1,0.3-1.3,0c-0.1-0.1-0.1-0.1-0.1-0.2c-0.5-0.7-0.1-1.2,0.5-1.6c1.3-0.7,2.2-2.9,4-2
			c1.5,0.8,0.4,2.7,0.7,4.1C244.8,144.8,244.8,145.3,244.8,145.8L244.8,145.8z"/>
		<path class="st44" d="M306.8,310.2c-0.1,5,0.2,9.9,0.9,14.9c-1.7,0.4-2.8,1.8-4.2,2.6c-5.7,3.5-11.7,4-18.1,2.7
			c-2.9-0.6-5.5-1.9-8.7-3.5C290.1,326.7,299.6,320.5,306.8,310.2z"/>
		<path class="st45" d="M312.3,284.4c-0.4-5.2,1.4-10.3,5-14.1c6.5-7.2,13.5-3.2,15.9,3.8c2.5,7.2,0.7,13.9-4.6,19.4
			c-2.7,2.9-6.2,4-10,2.5s-5.8-4.7-6.3-8.8C312.3,286.3,312.3,285.3,312.3,284.4z"/>
	</g>
	
		<image style="overflow:visible;enable-background:new    ;" width="493" height="500" xlink:href="BE82C2317ECF1396.png"  transform="matrix(0.1 0 0 0.1 73.95 414.39)">
	</image>
</g>
<g id="Capa_1_1_">
	<g id="ExSe22">
		<path class="st46" d="M187.7,68.5c-2,1.2-3.7,0.8-5.3,0.8c-49.9,0-99.8,0-149.8,0c-0.7,0-1.3,0-2,0c-1.5-0.2-3.8,0.6-3.8-1.8
			c-0.1-1.7,1.3-3.1,3-3.2c0.3,0,0.5,0,0.8,0.1c4.2,0.5,6.8-1.2,9-4.7s5.9-3,8.8-1c4.1,2.8,6.4,0.9,8.7-2.2c1.8-2.5,3.2-5.3,6.3-6.8
			c3.9-1.8,7.2-1.7,10.6,1c7.5,6,14,3.8,17.2-5.6c0.7-2.2,1.5-4.3,2.4-6.4c3.1-6.7,12.2-7.4,16.9-1.3c2.6,3.4,4.9,7,8.4,9.7
			c3.2,2.5,6.4,2.9,10.1,0.8c5.5-3.2,10.1-2.2,13.8,2.9c6.2,8.4,6.5,8.7,16,6.1c4.2-1.2,6.7,0.4,8.9,3.5c2.4,3.5,5,5.7,9.9,4.2
			C181.3,63.2,184.9,64.9,187.7,68.5z"/>
		<path class="st46" d="M482.2,32.3c-21.8,0-43.6,0-65.4,0c-1.5,0-4.1,1-4.2-1.1c-0.1-2.3,2.3-3,4.5-2.8c5.6,0.5,10.3-0.4,13.8-5.6
			c1.7-2.5,5.1-3.2,7.7-1.6c4.7,2.7,8.1,0.9,11.1-3.1c5.5-7.5,6.8-7.8,15.1-4.3c5.4,2.2,8.3-1.8,11.4-4.9c1.3-1.5,2.5-3.1,3.6-4.8
			c5-6.6,13.5-4.9,16.4,3.5c0.9,2.5,1.4,5.1,3,7.3c3,4,6.4,4.8,10.8,2.1c9.2-5.6,10-5.4,16.5,3.1c2.1,2.7,4.2,5.2,8.2,2.2
			c3-2.2,6.2-1.4,8.2,1.7c1.7,2.6,3.5,3.7,6.5,3.4c2-0.2,4,0.8,4,2.8c0,2.6-2.5,2.1-4.2,2.1C526.8,32.3,504.5,32.3,482.2,32.3z"/>
		<path class="st47" d="M310.8,300.1c-7.4,4.4-15.1,7.6-24,7.4c-2,0-3.3,1-4.8,2.2c-3.5,3-10.3,2.3-13.1-1.2
			c-1.9-2.4-2.1-4.9,0.6-6.9c3.5-2.6,10.4-2.5,13.4,0.9c1.7,2,3.5,2.2,5.7,2c9.6-0.7,18-4.2,24.8-11.3c1.1,0.2,2.4-0.1,3.3,1
			l-4.1,4.3C312.2,299.2,311.8,300.1,310.8,300.1z"/>
	</g>
</g>
</svg>
