<?xml version="1.0" encoding="utf-8"?>
<!-- Generator: Adobe Illustrator 22.0.0, SVG Export Plug-In . SVG Version: 6.00 Build 0)  -->
<svg version="1.1" id="Capa_1" xmlns="http://www.w3.org/2000/svg" xmlns:xlink="http://www.w3.org/1999/xlink" x="0px" y="0px"
	 viewBox="0 0 512 512" style="enable-background:new 0 0 512 512;" xml:space="preserve">
<style type="text/css">
	.st0{fill:#4D13F9;}
	.st1{fill:#181B32;}
	.st2{fill:#FFFFFF;}
	.st3{fill:#12DDDD;}
	.st4{fill:#03C9D2;}
	.st5{fill:#D9EAFC;}
	.st6{fill:#C3DDF4;}
	.st7{fill:#AEAEFF;}
	.st8{fill:#8181FC;}
	.st9{fill:#250E83;}
	.st10{fill:#3216A4;}
	.st11{fill:#F44A90;}
	.st12{fill:#EE1059;}
	.st13{fill:#615DF9;}
	.st14{fill:#FFD00D;}
	.st15{fill:#FFAF10;}
</style>
<circle class="st0" cx="256" cy="256" r="245"/>
<path class="st1" d="M463.9,121.9c-2.8,0-5.6,2-6.5,4.7l-2.6,6.1c-1.2,2.4-0.6,5.9,1.3,7.8l9.5,9.5c0.6,0.6,0.9,1.4,0.9,2.3
	s-0.3,1.7-0.9,2.3l-17.3,17.2c-0.6,0.6-1.4,0.9-2.3,0.9c-0.9,0-1.7-0.3-2.3-0.9l-9.5-9.5c-1.2-1.2-3.1-1.9-5-1.9c-1,0-2,0.2-2.9,0.6
	l-6.2,2.5c-2.6,0.9-4.6,3.7-4.6,6.5v13.4c0,1.8-1.4,3.2-3.2,3.2h-24.5c-1.8,0-3.2-1.4-3.2-3.2V170c0-2.8-2-5.6-4.7-6.5l-6.2-2.6
	c-0.8-0.4-1.8-0.6-2.8-0.6c-1.9,0-3.8,0.7-5,1.9l-9.5,9.5c-0.6,0.6-1.4,0.9-2.3,0.9s-1.7-0.3-2.3-0.9l-17.3-17.2
	c-0.6-0.6-0.9-1.4-0.9-2.3c0-0.9,0.3-1.7,0.9-2.3l9.5-9.5c2-1.9,2.5-5.4,1.3-7.9l-2.6-6.1c-0.9-2.6-3.8-4.6-6.5-4.6h-13.5
	c-0.9,0-1.7-0.3-2.3-0.9c-0.6-0.6-0.9-1.4-0.9-2.3v-12.3H48c-5.5,0-10,4.5-10,10v269h436V121.9H463.9z"/>
<path class="st2" d="M448.4,171.7c-0.6,0.6-1.4,0.9-2.3,0.9c-0.9,0-1.7-0.3-2.3-0.9l-9.5-9.5c-1.2-1.2-3.1-1.9-5-1.9
	c-1,0-2,0.2-2.9,0.6l-6.2,2.5c-2.6,0.9-4.6,3.7-4.6,6.5v13.4c0,1.8-1.4,3.2-3.2,3.2h-24.5c-1.8,0-3.2-1.4-3.2-3.2V170
	c0-2.8-2-5.6-4.7-6.5l-6.2-2.6c-0.8-0.4-1.8-0.6-2.8-0.6c-1.9,0-3.8,0.7-5,1.9l-9.5,9.5c-0.6,0.6-1.4,0.9-2.3,0.9s-1.7-0.3-2.3-0.9
	l-17.3-17.2c-0.6-0.6-0.9-1.4-0.9-2.3c0-0.9,0.3-1.7,0.9-2.3l9.5-9.5c2-1.9,2.5-5.4,1.3-7.9l-0.5-1.2H68c-2.8,0-5,2.3-5,5v222
	c0,2.8,2.3,5,5,5h376c2.8,0,5-2.3,5-5V171.1L448.4,171.7z"/>
<path class="st3" d="M269.4,221.2c0-1.9,0-16.7,0-16.7v-47.3c0-2.8-2.3-5-5-5h-66.6c-2.8,0-5,2.3-5,5v59c0,2.8,2.3,5,5,5h55.1H269.4
	z"/>
<path class="st3" d="M426.3,160.9l-6.2,2.5c-2.6,0.9-4.6,3.7-4.6,6.5l-27.7,16.6c-1.8,0-3.2-1.4-3.2-3.2V170c0-2.8-2-5.6-4.7-6.5
	l-6.2-2.6c-0.8-0.4-1.8-0.6-2.8-0.6c-1.9,0-3.8,0.7-5,1.9l-9.5,9.5c-0.6,0.6-1.4,0.9-2.3,0.9s-1.7-0.3-2.3-0.9l-17.3-17.2
	c-0.6-0.6-0.9-1.4-0.9-2.3c0,0,0-0.1,0-0.1h-47.7c-2.8,0-5,2.3-5,5v47.3v16.7h51.8h88.9c2.8,0,5-2.3,5-5L426.3,160.9
	C426.3,160.9,426.3,160.9,426.3,160.9z"/>
<path class="st3" d="M245.2,200"/>
<path class="st4" d="M212.6,216.2v-59c0-2.8,2.3-5,5-5h-19.8c-2.8,0-5,2.3-5,5v59c0,2.8,2.3,5,5,5h19.8
	C214.8,221.2,212.6,218.9,212.6,216.2z"/>
<path class="st4" d="M300.5,221.2v-62.4c0-3.6,2.3-6.6,5-6.6h-19.8c-2.8,0-5,3-5,6.6v62.4H300.5z"/>
<path class="st5" d="M68,131.4c-2.8,0-5,2.3-5,5v222c0,2.8,2.3,5,5,5h101v-232H68z"/>
<path class="st6" d="M82.8,358.4v-222c0-2.8,2.3-5,5-5H68c-2.8,0-5,2.3-5,5v222c0,2.8,2.3,5,5,5h19.8
	C85.1,363.4,82.8,361.2,82.8,358.4z"/>
<path class="st7" d="M512,425.4c0,2.8-2.3,5-5,5H5c-2.8,0-5-2.3-5-5v-36c0-2.8,2.3-5,5-5h502c2.8,0,5,2.3,5,5V425.4z"/>
<path class="st8" d="M215.1,384.4H37.2c-24.7,0-44.8,2.3-44.8,5v36c0,2.8,20.2,5,44.8,5h177.9c-1.7-53.6,0,5.1-1.5-46"/>
<g>
	<path class="st9" d="M140.7,189.7h-57c-4.1,0-7.5-3.4-7.5-7.5s3.4-7.5,7.5-7.5h57c4.1,0,7.5,3.4,7.5,7.5S144.8,189.7,140.7,189.7z"
		/>
	<path class="st9" d="M140.7,222.7h-57c-4.1,0-7.5-3.4-7.5-7.5s3.4-7.5,7.5-7.5h57c4.1,0,7.5,3.4,7.5,7.5
		C148.2,219.3,144.8,222.7,140.7,222.7z"/>
	<path class="st9" d="M140.7,255.7h-57c-4.1,0-7.5-3.4-7.5-7.5s3.4-7.5,7.5-7.5h57c4.1,0,7.5,3.4,7.5,7.5S144.8,255.7,140.7,255.7z"
		/>
	<path class="st9" d="M140.7,288.7h-57c-4.1,0-7.5-3.4-7.5-7.5s3.4-7.5,7.5-7.5h57c4.1,0,7.5,3.4,7.5,7.5S144.8,288.7,140.7,288.7z"
		/>
	<path class="st9" d="M123.7,321.7h-40c-4.1,0-7.5-3.4-7.5-7.5s3.4-7.5,7.5-7.5h40c4.1,0,7.5,3.4,7.5,7.5S127.8,321.7,123.7,321.7z"
		/>
</g>
<g>
	<path class="st3" d="M215.2,340.1c0,1.6-1.4,3-3,3h-16.5c-1.6,0-3-1.4-3-3v-87c0-1.6,1.4-3,3-3h16.5c1.6,0,3,1.4,3,3V340.1z"/>
	<path class="st3" d="M245.2,340.1c0,1.6-1.4,3-3,3h-16.5c-1.6,0-3-1.4-3-3v-55.5c0-1.6,1.4-3,3-3h16.5c1.6,0,3,1.4,3,3V340.1z"/>
	<path class="st3" d="M275.2,340.1c0,1.6-1.4,3-3,3h-16.5c-1.6,0-3-1.4-3-3v-39c0-1.6,1.4-3,3-3h16.5c1.6,0,3,1.4,3,3V340.1z"/>
</g>
<g>
	<path class="st10" d="M305.2,340.1c0,1.6-1.4,3-3,3h-16.5c-1.6,0-3-1.4-3-3v-70.5c0-1.6,1.4-3,3-3h16.5c1.6,0,3,1.4,3,3V340.1z"/>
	<path class="st10" d="M335.2,340.1c0,1.6-1.4,3-3,3h-16.5c-1.6,0-3-1.4-3-3v-48c0-1.6,1.4-3,3-3h16.5c1.6,0,3,1.4,3,3V340.1z"/>
	<path class="st10" d="M365.2,340.1c0,1.6-1.4,3-3,3h-16.5c-1.6,0-3-1.4-3-3v-30c0-1.6,1.4-3,3-3h16.5c1.6,0,3,1.4,3,3V340.1z"/>
</g>
<g>
	<path class="st11" d="M395.2,340.1c0,1.6-1.4,3-3,3h-16.5c-1.6,0-3-1.4-3-3v-67.5c0-1.6,1.4-3,3-3h16.5c1.6,0,3,1.4,3,3V340.1z"/>
	<path class="st11" d="M425.2,340.1c0,1.6-1.4,3-3,3h-16.5c-1.6,0-3-1.4-3-3v-87c0-1.6,1.4-3,3-3h16.5c1.6,0,3,1.4,3,3V340.1z"/>
</g>
<g>
	<path class="st4" d="M203.6,340.1v-87c0-1.6,1.4-3,3-3h-10.8c-1.6,0-3,1.4-3,3v87c0,1.6,1.4,3,3,3h10.8
		C204.9,343.1,203.6,341.7,203.6,340.1z"/>
	<path class="st4" d="M233.5,340.1v-55.5c0-1.6,1.4-3,3-3h-10.8c-1.6,0-3,1.4-3,3v55.5c0,1.6,1.4,3,3,3h10.8
		C234.9,343.1,233.5,341.7,233.5,340.1z"/>
	<path class="st4" d="M263.5,340.1v-39c0-1.6,1.4-3,3-3h-10.8c-1.6,0-3,1.4-3,3v39c0,1.6,1.4,3,3,3h10.8
		C264.9,343.1,263.5,341.7,263.5,340.1z"/>
</g>
<g>
	<path class="st9" d="M293.5,340.1v-70.5c0-1.6,1.4-3,3-3h-10.8c-1.6,0-3,1.4-3,3v70.5c0,1.6,1.4,3,3,3h10.8
		C294.9,343.1,293.5,341.7,293.5,340.1z"/>
	<path class="st9" d="M323.5,340.1v-48c0-1.6,1.4-3,3-3h-10.8c-1.6,0-3,1.4-3,3v48c0,1.6,1.4,3,3,3h10.8
		C324.9,343.1,323.5,341.7,323.5,340.1z"/>
	<path class="st9" d="M353.5,340.1v-30c0-1.6,1.4-3,3-3h-10.8c-1.6,0-3,1.4-3,3v30c0,1.6,1.4,3,3,3h10.8
		C354.9,343.1,353.5,341.7,353.5,340.1z"/>
</g>
<g>
	<path class="st12" d="M383.5,340.1v-67.5c0-1.6,1.4-3,3-3h-10.8c-1.6,0-3,1.4-3,3v67.5c0,1.6,1.4,3,3,3h10.8
		C384.9,343.1,383.5,341.7,383.5,340.1z"/>
	<path class="st12" d="M413.5,340.1v-87c0-1.6,1.4-3,3-3h-10.8c-1.6,0-3,1.4-3,3v87c0,1.6,1.4,3,3,3h10.8
		C414.9,343.1,413.5,341.7,413.5,340.1z"/>
</g>
<path class="st8" d="M193,384.4v11c0,5.5,4.5,10,10,10h106c5.5,0,10-4.5,10-10v-11H193z"/>
<path class="st13" d="M212.8,395.4v-11H193v11c0,5.5,4.5,10,10,10h19.8C217.3,405.4,212.8,400.9,212.8,395.4z"/>
<path class="st14" d="M478.1,91.7c0-5.7-4.1-10.4-9.1-10.4H321.8c-5,0-9.1,4.7-9.1,10.4v76.5c0,5.7,4.1,10.4,9.1,10.4h47.3
	c5,0,11.1,4.1,13.6,9l8.2,16.3c2.5,5,6.6,5,9.1,0l8.2-16.3c2.5-5,8.6-9,13.6-9h47.3c5,0,9.1-4.7,9.1-10.4L478.1,91.7L478.1,91.7z"/>
<path class="st15" d="M348.5,167.9V91.7c0-5.7,3.6-10.4,8.1-10.4h-35.7c-4.4,0-8.1,4.7-8.1,10.4v76.2c0,5.7,3.6,10.4,8.1,10.4h35.7
	C352.1,178.3,348.5,173.6,348.5,167.9z"/>
</svg>
