<svg id="Capa_1" data-name="Capa 1" xmlns="http://www.w3.org/2000/svg" viewBox="0 0 512 490"><defs><style>.cls-1{fill:#4b22f4;}.cls-2{fill:#181b32;}.cls-3{fill:#202442;}.cls-4{fill:#8062fc;}.cls-5{fill:#6f4ef5;}.cls-6{fill:#e6f7fe;}.cls-7{fill:#d5f1fe;}.cls-8{fill:#8181fc;}.cls-9{fill:#aeaeff;}.cls-10{fill:#ee1059;}.cls-11{fill:#f44a90;}.cls-12{fill:#3d4ec6;}.cls-13{fill:#f73470;}.cls-14{fill:#fecd0a;}.cls-15{fill:#39df74;}.cls-16{fill:#12dddd;}.cls-17{fill:#03c9d2;}.cls-18{fill:#615df9;}</style></defs><path class="cls-1" d="M120.12,45.6S292.07,274.05,481,319.43l.67.17A245.18,245.18,0,0,0,490,256C490,120.69,380.31,11,245,11A243.92,243.92,0,0,0,119.64,45.47Z" transform="translate(0 -11)"/><path class="cls-1" d="M149.52,432.32l-2.07-38.55H42.39A246,246,0,0,0,142,478.33h21.8l-3-5.69A97,97,0,0,1,149.52,432.32Z" transform="translate(0 -11)"/><path class="cls-2" d="M87.2,403.93a12,12,0,0,1,5.65-10.16H42.39A246,246,0,0,0,87.2,443.39Z" transform="translate(0 -11)"/><path class="cls-2" d="M314.36,44.6H121.12A245.66,245.66,0,0,0,84.94,70.54L6.94,314a244.2,244.2,0,0,0,8.71,28.27l76.87-.49,239.92,1.53V62.68A18.13,18.13,0,0,0,314.36,44.6Z" transform="translate(0 -11)"/><path class="cls-3" d="M85.32,70.21l-.38.33L6.94,314a244.2,244.2,0,0,0,8.71,28.27l69.67-.45Z" transform="translate(0 -11)"/><path class="cls-4" d="M30.2,138.09A243.9,243.9,0,0,0,0,256c0,.51,0,1,0,1.52H0l1.5,25.75h0a244,244,0,0,0,5.86,32.55H306.29a1.4,1.4,0,0,0,1.41-1.4V138.09Z" transform="translate(0 -11)"/><path class="cls-5" d="M30.2,138.09A243.9,243.9,0,0,0,0,256c0,.51,0,1,0,1.52H0l1.5,25.75h0a244,244,0,0,0,5.86,32.55H85.32V138.09Z" transform="translate(0 -11)"/><path class="cls-6" d="M43.66,395.6h270.7a18.13,18.13,0,0,0,18.08-18.08V340.61H15A243.55,243.55,0,0,0,43.66,395.6Z" transform="translate(0 -11)"/><path class="cls-7" d="M85.32,377.52V340.61H15a243.55,243.55,0,0,0,28.65,55H103.4A18.13,18.13,0,0,1,85.32,377.52Z" transform="translate(0 -11)"/><path class="cls-7" d="M104.89,368.11a12.38,12.38,0,1,1-12.37-12.38A12.37,12.37,0,0,1,104.89,368.11Z" transform="translate(0 -11)"/><path class="cls-7" d="M29.11,140.09H307.7V111.91H46.85A245.45,245.45,0,0,0,29.11,140.09Z" transform="translate(0 -11)"/><path class="cls-7" d="M85.32,111.91H46.85a244.09,244.09,0,0,0-17.74,28.18H85.32Z" transform="translate(0 -11)"/><path class="cls-4" d="M305.51,69.34H86.32A247.38,247.38,0,0,0,46.4,112.52H307.7v-41A2.22,2.22,0,0,0,305.51,69.34Z" transform="translate(0 -11)"/><path class="cls-5" d="M85.32,70.22a246.77,246.77,0,0,0-38.92,42.3H85.32Z" transform="translate(0 -11)"/><path class="cls-8" d="M176.86,83.43H71.1q-7.15,7.21-13.7,15H176.86a7.5,7.5,0,0,0,0-15Z" transform="translate(0 -11)"/><path class="cls-9" d="M203.86,83.43H71.1q-7.15,7.21-13.7,15H203.86a7.5,7.5,0,0,0,0-15Z" transform="translate(0 -11)"/><path class="cls-8" d="M172.73,90.93a7.5,7.5,0,0,1,7.5-7.5H71.1q-7.15,7.21-13.7,15H180.23A7.5,7.5,0,0,1,172.73,90.93Z" transform="translate(0 -11)"/><path class="cls-9" d="M278.14,98.43H234.36a7.5,7.5,0,0,1,0-15h43.78a7.5,7.5,0,0,1,0,15Z" transform="translate(0 -11)"/><path class="cls-6" d="M68.29,257.52H0a245.9,245.9,0,0,0,1.5,25.75H68.29Z" transform="translate(0 -11)"/><path class="cls-10" d="M89.79,257.52H67.29v25.75H89.8a4.73,4.73,0,0,0,4.73-4.73V262.25A4.74,4.74,0,0,0,89.79,257.52Z" transform="translate(0 -11)"/><path class="cls-9" d="M80.87,224.37H2q-1,7.42-1.46,15h80.3a7.5,7.5,0,0,0,0-15Z" transform="translate(0 -11)"/><path class="cls-9" d="M80.87,192.59H8.3q-2,7.41-3.51,15H80.87a7.5,7.5,0,1,0,0-15Z" transform="translate(0 -11)"/><path class="cls-8" d="M53.07,231.87a7.5,7.5,0,0,1,7.5-7.5H2q-1,7.42-1.46,15h60A7.5,7.5,0,0,1,53.07,231.87Z" transform="translate(0 -11)"/><path class="cls-8" d="M53.07,200.09a7.5,7.5,0,0,1,7.5-7.5H8.3q-2,7.41-3.51,15H60.57A7.5,7.5,0,0,1,53.07,200.09Z" transform="translate(0 -11)"/><path class="cls-11" d="M307.7,140.09H91.82c18.55,34.51,37.57,69.93,56,104.25a15,15,0,0,1,14.65-11.73H307.7Z" transform="translate(0 -11)"/><path class="cls-10" d="M166.39,140.09H91.82c18.55,34.51,37.57,69.93,56,104.25a15,15,0,0,1,14.65-11.73h53.63Z" transform="translate(0 -11)"/><path class="cls-2" d="M465.45,231.11H137.68a16.57,16.57,0,0,0-16.52,16.52v219.8q7.08,4.14,14.43,7.82H482V247.63A16.56,16.56,0,0,0,465.45,231.11Z" transform="translate(0 -11)"/><path class="cls-3" d="M195.43,245.58a7.5,7.5,0,0,1-2.63-14.47H137.68a16.57,16.57,0,0,0-16.52,16.52v219.8q7.08,4.14,14.43,7.83h59.84V245.58Z" transform="translate(0 -11)"/><path class="cls-4" d="M468,312.82H135.12V475l.47.23H468Z" transform="translate(0 -11)"/><path class="cls-5" d="M192.87,312.82H135.12V475l.47.23h57.28Z" transform="translate(0 -11)"/><path class="cls-11" d="M388.71,475.26H468V312.82H301.47Q345.18,394.18,388.71,475.26Z" transform="translate(0 -11)"/><path class="cls-10" d="M384.74,312.82H301.47q43.71,81.36,87.24,162.43H468v-7.39Z" transform="translate(0 -11)"/><path class="cls-4" d="M465.82,245.07H137.31a2.21,2.21,0,0,0-2.19,2.18v41H468v-41A2.21,2.21,0,0,0,465.82,245.07Z" transform="translate(0 -11)"/><path class="cls-12" d="M192.87,245.07H137.31a2.21,2.21,0,0,0-2.19,2.18v41h57.75Z" transform="translate(0 -11)"/><path class="cls-13" d="M159.34,274.16a7.5,7.5,0,1,1,7.5-7.5A7.52,7.52,0,0,1,159.34,274.16Z" transform="translate(0 -11)"/><path class="cls-14" d="M179.86,274.16a7.5,7.5,0,1,1,7.5-7.5A7.52,7.52,0,0,1,179.86,274.16Z" transform="translate(0 -11)"/><path class="cls-15" d="M200.37,274.16a7.5,7.5,0,1,1,7.5-7.5A7.53,7.53,0,0,1,200.37,274.16Z" transform="translate(0 -11)"/><path class="cls-9" d="M383,274.16H226.11a7.5,7.5,0,0,1,0-15H383a7.5,7.5,0,0,1,0,15Z" transform="translate(0 -11)"/><path class="cls-8" d="M346.61,266.66a7.5,7.5,0,0,1,7.5-7.5h-128a7.5,7.5,0,0,0,0,15h128A7.5,7.5,0,0,1,346.61,266.66Z" transform="translate(0 -11)"/><path class="cls-9" d="M445.45,274.16h-34a7.5,7.5,0,0,1,0-15h34a7.5,7.5,0,0,1,0,15Z" transform="translate(0 -11)"/><path class="cls-7" d="M135.12,287.25H468v27.57H135.12Z" transform="translate(0 -11)"/><path class="cls-16" d="M188.77,287.25H135.12v27.57h81.23A27.58,27.58,0,0,0,188.77,287.25Z" transform="translate(0 -11)"/><path class="cls-17" d="M192.87,287.55a29.2,29.2,0,0,0-4.1-.3H135.12v27.57h57.75V287.55Z" transform="translate(0 -11)"/><path class="cls-9" d="M506.82,472.25h-377A243.91,243.91,0,0,0,245,501H481c15,0,24.33-6,28-7.28A5.19,5.19,0,0,0,512,489V477.44A5.19,5.19,0,0,0,506.82,472.25Z" transform="translate(0 -11)"/><path class="cls-8" d="M276.86,493.81a7.67,7.67,0,0,1,7.51-7.68V472.26H129.79A244,244,0,0,0,245,501h36.82A7.68,7.68,0,0,1,276.86,493.81Z" transform="translate(0 -11)"/><path class="cls-8" d="M236.66,472.26v6a8.4,8.4,0,0,0,8.37,8.38H358.1a8.4,8.4,0,0,0,8.38-8.38v-6Z" transform="translate(0 -11)"/><path class="cls-18" d="M274.33,478.25v-6H236.66v6a8.4,8.4,0,0,0,8.37,8.38H282.7A8.4,8.4,0,0,1,274.33,478.25Z" transform="translate(0 -11)"/><path class="cls-6" d="M296.83,421.29H169.11a4.74,4.74,0,0,0-4.74,4.74v16.28a4.74,4.74,0,0,0,4.74,4.74H296.83a4.74,4.74,0,0,0,4.74-4.74V426A4.74,4.74,0,0,0,296.83,421.29Z" transform="translate(0 -11)"/><path class="cls-7" d="M193,442.31V426a4.74,4.74,0,0,1,4.74-4.74H169.11a4.74,4.74,0,0,0-4.74,4.74v16.28a4.74,4.74,0,0,0,4.74,4.74h28.58A4.74,4.74,0,0,1,193,442.31Z" transform="translate(0 -11)"/><path class="cls-10" d="M296.83,421.29h-22.5v25.76h22.5a4.74,4.74,0,0,0,4.74-4.74V426A4.74,4.74,0,0,0,296.83,421.29Z" transform="translate(0 -11)"/><path class="cls-8" d="M221.39,350.83H173.63a7.5,7.5,0,0,1,0-15h47.76a7.5,7.5,0,1,1,0,15Z" transform="translate(0 -11)"/><path class="cls-9" d="M292.31,404.93H173.63a7.5,7.5,0,1,1,0-15H292.31a7.5,7.5,0,0,1,0,15Z" transform="translate(0 -11)"/><path class="cls-9" d="M292.31,377.88H173.63a7.5,7.5,0,0,1,0-15H292.31a7.5,7.5,0,1,1,0,15Z" transform="translate(0 -11)"/><path class="cls-8" d="M254.05,397.43a7.5,7.5,0,0,1,7.5-7.5H173.63a7.5,7.5,0,1,0,0,15h87.92A7.5,7.5,0,0,1,254.05,397.43Z" transform="translate(0 -11)"/><path class="cls-8" d="M254.05,370.38a7.5,7.5,0,0,1,7.5-7.5H173.63a7.5,7.5,0,0,0,0,15h87.92A7.5,7.5,0,0,1,254.05,370.38Z" transform="translate(0 -11)"/></svg>