<?xml version="1.0" encoding="utf-8"?>
<!-- Generator: Adobe Illustrator 22.0.0, SVG Export Plug-In . SVG Version: 6.00 Build 0)  -->
<svg version="1.1" id="Capa_1" xmlns="http://www.w3.org/2000/svg" xmlns:xlink="http://www.w3.org/1999/xlink" x="0px" y="0px"
	 viewBox="0 0 512 512" style="enable-background:new 0 0 512 512;" xml:space="preserve">
<style type="text/css">
	.st0{fill:#4D13F9;}
	.st1{fill:#F9CFA9;}
	.st2{fill:#1B1E35;}
	.st3{fill:#15182D;}
	.st4{fill:#E6F7FE;}
	.st5{fill:#D5F1FE;}
	.st6{fill:#7050F9;}
	.st7{fill:#03C9D2;}
	.st8{fill:#EE1059;}
	.st9{fill:#DD055E;}
	.st10{fill:#F44A90;}
	.st11{fill:#FC7ACD;}
	.st12{fill:#FBBC8D;}
</style>
<path class="st0" d="M272.4,511.4l138.9-54.9C466.1,411.6,501,343.4,501,267c0-135.3-109.7-245-245-245S11,131.7,11,267
	c0,135.3,109.7,245,245,245C261.5,512,267,511.8,272.4,511.4z"/>
<path class="st1" d="M399.7,318.9c2-23.6-1.6-47.3-12.1-68.6c-27-55-20.8-59-21.7-113.6c0-11.2-9-20.2-20.2-20.2
	c-11.2,0-20.2,9-20.2,20.2c0,7.2,0,203.8,0,203.1c0,3.1-0.3,6.2-1,9.2V378c0,24.5-19.9,44.4-44.4,44.4c-16.3,0-72.4,0-110.6,0
	c17,23.6,40.2,42.1,67.2,53.3c0.2,0.1,0.3,0.1,0.5,0.2c16.2,6.9,28.6,19.8,35.1,35.5C325,508,373,487.9,411.3,456.5l-15.1-55.3
	c-2.1-7.9-2.9-16.1-2.2-24.3L399.7,318.9z"/>
<path class="st1" d="M94.6,117.2l-6.2-5.7c-9.5-8.8-24.4-8.2-33.2,1.3c-8.8,9.5-8.2,24.4,1.3,33.2l38.1,35.3V117.2z"/>
<path class="st2" d="M296.6,0H123.9c-16.8,0-30.4,13.6-30.4,30.4v364c0,16.8,13.6,30.4,30.4,30.4h172.7c16.8,0,30.4-13.6,30.4-30.4
	v-364C327,13.6,313.4,0,296.6,0z"/>
<path class="st3" d="M152,22.5c-1.6-2.4-2.6-5.4-2.6-8.6c0-6.2,3.7-11.6,9-14h-34.5c-16.8,0-30.4,13.6-30.4,30.4v364
	c0,16.8,13.6,30.4,30.4,30.4h36.7V49.2C160.6,39.6,157.4,30.5,152,22.5z"/>
<path class="st4" d="M111.1,192v202.4c0,7.1,5.7,12.8,12.8,12.8h172.7c7.1,0,12.8-5.7,12.8-12.8c0-6.9,0-108.3,0-202.4H111.1z"/>
<path class="st5" d="M111.1,192v202.4c0,7.1,5.7,12.8,12.8,12.8h30.3V192H111.1z"/>
<path class="st6" d="M180.7,253c0,11.1-9,20.1-20.1,20.1s-20.1-9-20.1-20.1s9-20.1,20.1-20.1S180.7,242,180.7,253z"/>
<path class="st6" d="M180.7,327.4c0,11.1-9,20.1-20.1,20.1s-20.1-9-20.1-20.1s9-20.1,20.1-20.1S180.7,316.3,180.7,327.4z"/>
<path class="st0" d="M158.4,233.1c-10,1.1-17.8,9.6-17.8,19.9c0,11.1,9,20.1,20.1,20.1c6.9,0,13-3.5,16.6-8.8
	C159.9,266.2,148.9,247,158.4,233.1z"/>
<path class="st0" d="M158.4,307.5c-10,1.1-17.8,9.6-17.8,19.9c0,11.1,9,20.1,20.1,20.1c6.9,0,13-3.5,16.6-8.8
	C160,340.6,148.9,321.5,158.4,307.5z"/>
<g>
	<path class="st7" d="M242.6,244.7h-28.5c-4.1,0-7.5-3.4-7.5-7.5c0-4.1,3.4-7.5,7.5-7.5h28.5c4.1,0,7.5,3.4,7.5,7.5
		C250.1,241.3,246.7,244.7,242.6,244.7z"/>
	<path class="st7" d="M271,276.4h-56.9c-4.1,0-7.5-3.4-7.5-7.5c0-4.1,3.4-7.5,7.5-7.5H271c4.1,0,7.5,3.4,7.5,7.5
		C278.5,273,275.2,276.4,271,276.4z"/>
	<path class="st7" d="M242.6,319h-28.5c-4.1,0-7.5-3.4-7.5-7.5s3.4-7.5,7.5-7.5h28.5c4.1,0,7.5,3.4,7.5,7.5S246.7,319,242.6,319z"/>
	<path class="st7" d="M271,350.7h-56.9c-4.1,0-7.5-3.4-7.5-7.5c0-4.1,3.4-7.5,7.5-7.5H271c4.1,0,7.5,3.4,7.5,7.5
		C278.5,347.4,275.2,350.7,271,350.7z"/>
</g>
<path class="st8" d="M296.5,17.6h-25.7c-2.4,0-4.4,2-4.4,4.4c0,5.8-4.8,10.6-10.6,10.6h-91.5c-5.8,0-10.6-4.8-10.6-10.6
	c0-2.4-2-4.4-4.4-4.4h-25.7c-7.1,0-12.8,5.7-12.8,12.8V194h198.3V30.4C309.3,23.3,303.6,17.6,296.5,17.6z"/>
<path class="st9" d="M154.2,24.5c-0.2-0.8-0.3-1.7-0.3-2.5c0-2.4-2-4.4-4.4-4.4h-25.7c-7.1,0-12.8,5.7-12.8,12.8V194h43.2V24.5z"/>
<path class="st10" d="M296.5,17.6h-25.7c-2.4,0-4.4,2-4.4,4.4c0,5.8-4.8,10.6-10.6,10.6h-50.5l103.9,130.2V30.4
	C309.3,23.3,303.6,17.6,296.5,17.6z"/>
<path class="st11" d="M177.9,77.2h-34.6c-4.1,0-7.5-3.4-7.5-7.5s3.4-7.5,7.5-7.5h34.6c4.1,0,7.5,3.4,7.5,7.5
	C185.4,73.8,182.1,77.2,177.9,77.2z"/>
<path class="st1" d="M128.8,241.2c-7.7,8.3-20.8,8.8-29.1,1.1l-34.5-32c-8.3-7.7-8.8-20.8-1.1-29.1s20.8-8.8,29.1-1.1l34.5,32
	C136,219.8,136.5,232.8,128.8,241.2z"/>
<path class="st12" d="M127.7,212.1l-16.4-15.2c2.2,7.8,0.4,16.5-5.6,22.9c-5.9,6.4-14.5,8.8-22.4,7.3l16.4,15.2
	c8.3,7.7,21.4,7.2,29.1-1.1C136.5,232.8,136,219.8,127.7,212.1z"/>
<path class="st1" d="M128.8,297.4c-7.7,8.3-20.8,8.8-29.1,1.1l-34.5-32c-8.3-7.7-8.8-20.8-1.1-29.1c7.7-8.3,20.8-8.8,29.1-1.1
	l34.5,32C136,276,136.5,289,128.8,297.4z"/>
<path class="st1" d="M128.8,353.5c-7.7,8.3-20.8,8.8-29.1,1.1l-34.5-32c-8.3-7.7-8.8-20.8-1.1-29.1s20.8-8.8,29.1-1.1l34.5,32
	C136,332.2,136.5,345.2,128.8,353.5z"/>
<path class="st12" d="M396.2,401.2c-1.1-3.9-1.8-7.9-2.2-12c-38.2,62.7-112.3,91.8-181.9,73.7c7.8,5,16,9.3,24.6,12.9
	c0.2,0.1,0.3,0.1,0.5,0.2c16.2,6.9,28.6,19.8,35.1,35.5C325,508,373,487.9,411.3,456.5L396.2,401.2z"/>
<path class="st12" d="M127.7,268.3l-16.4-15.2c2.2,7.8,0.4,16.5-5.6,22.9c-5.9,6.4-14.5,8.8-22.4,7.3l16.4,15.2
	c8.3,7.7,21.4,7.2,29.1-1.1S136,276,127.7,268.3z"/>
<path class="st12" d="M127.7,324.4l-16.4-15.2c2.2,7.8,0.4,16.5-5.6,22.9c-5.9,6.4-14.5,8.8-22.4,7.3l16.4,15.2
	c8.3,7.7,21.4,7.2,29.1-1.1S136,332.2,127.7,324.4z"/>
</svg>
