<svg id="Capa_1" data-name="Capa 1" xmlns="http://www.w3.org/2000/svg" viewBox="0 0 490 512"><defs><style>.cls-1{fill:#4d13f9;}.cls-2{fill:#ffd00d;}.cls-3{fill:#f4ac1e;}.cls-4{fill:#d9eafc;}.cls-5{fill:#c3ddf4;}.cls-6{fill:#250e83;}.cls-7{fill:#03c9d2;}.cls-8{fill:#ffaf10;}.cls-9{fill:#ee1059;}.cls-10{fill:#181b32;}</style></defs><circle class="cls-1" cx="245" cy="267" r="245"/><path class="cls-2" d="M100.7,421.6a5,5,0,0,1-5-5V71.2H62.6a5,5,0,0,0-5,5V410.7a245.33,245.33,0,0,0,47.1,48.9H381.1a5,5,0,0,0,5-5V421.5l-285.4.1Z" transform="translate(-11)"/><path class="cls-3" d="M76.6,76.2a5,5,0,0,1,5-5h-19a5,5,0,0,0-5,5V410.7a248.05,248.05,0,0,0,19,23.1Z" transform="translate(-11)"/><path class="cls-2" d="M133.7,385.6a5,5,0,0,1-5-5V36H97.9a5,5,0,0,0-5,5V419.5a5,5,0,0,0,5,5H416.4a5,5,0,0,0,5-5V385.7l-287.7-.1Z" transform="translate(-11)"/><path class="cls-3" d="M110.9,419.5V41a5,5,0,0,1,5-5h-18a5,5,0,0,0-5,5V419.5a5,5,0,0,0,5,5h18A5,5,0,0,1,110.9,419.5Z" transform="translate(-11)"/><path class="cls-4" d="M454.4,383.5a5,5,0,0,1-5,5H130.9a5,5,0,0,1-5-5V5a5,5,0,0,1,5-5H449.4a5,5,0,0,1,5,5Z" transform="translate(-11)"/><path class="cls-5" d="M145.7,383.5V5a5,5,0,0,1,5-5H130.9a5,5,0,0,0-5,5V383.5a5,5,0,0,0,5,5h19.8A5.08,5.08,0,0,1,145.7,383.5Z" transform="translate(-11)"/><path class="cls-6" d="M415.1,50.8H345.5a7.5,7.5,0,0,1,0-15h69.6a7.5,7.5,0,0,1,0,15Z" transform="translate(-11)"/><path class="cls-6" d="M415.1,76.3H345.5a7.5,7.5,0,0,1,0-15h69.6a7.5,7.5,0,0,1,0,15Z" transform="translate(-11)"/><path class="cls-6" d="M415.1,101.8H345.5a7.5,7.5,0,0,1,0-15h69.6a7.5,7.5,0,0,1,0,15Z" transform="translate(-11)"/><path class="cls-6" d="M415.1,127.3H345.5a7.5,7.5,0,0,1,0-15h69.6a7.5,7.5,0,0,1,0,15Z" transform="translate(-11)"/><path class="cls-7" d="M285.4,305.3H168.2a7.5,7.5,0,0,1,0-15H285.4a7.5,7.5,0,0,1,0,15Z" transform="translate(-11)"/><path class="cls-7" d="M285.4,330.8H168.2a7.5,7.5,0,0,1,0-15H285.4a7.5,7.5,0,0,1,0,15Z" transform="translate(-11)"/><path class="cls-7" d="M285.4,356.3H168.2a7.5,7.5,0,0,1,0-15H285.4a7.5,7.5,0,0,1,0,15Z" transform="translate(-11)"/><path class="cls-6" d="M415.1,171.8H308.4a7.5,7.5,0,0,1,0-15H415.1a7.5,7.5,0,0,1,0,15Z" transform="translate(-11)"/><path class="cls-6" d="M415.1,197.3H308.4a7.5,7.5,0,0,1,0-15H415.1a7.5,7.5,0,0,1,0,15Z" transform="translate(-11)"/><path class="cls-6" d="M415.1,222.8H308.4a7.5,7.5,0,0,1,0-15H415.1a7.5,7.5,0,0,1,0,15Z" transform="translate(-11)"/><path class="cls-6" d="M415.1,248.3H308.4a7.5,7.5,0,0,1,0-15H415.1a7.5,7.5,0,0,1,0,15Z" transform="translate(-11)"/><path class="cls-6" d="M154.8,215.8H184a29.23,29.23,0,0,1,29.2-29.2V157.4A58.34,58.34,0,0,0,154.8,215.8Z" transform="translate(-11)"/><path class="cls-7" d="M228.1,142.4v29.2a29.23,29.23,0,0,1,29.2,29.2h29.2A58.34,58.34,0,0,0,228.1,142.4Z" transform="translate(-11)"/><path class="cls-8" d="M242.5,215.8a29.25,29.25,0,0,1-58.5,0H154.8a58.5,58.5,0,0,0,117,0Z" transform="translate(-11)"/><path class="cls-8" d="M188.4,115.1V45.3a3,3,0,0,0-3-3H167.2a3,3,0,0,0-3,3v69.8Z" transform="translate(-11)"/><path class="cls-9" d="M227.5,115.1V64.3a3,3,0,0,0-3-3H206.3a3,3,0,0,0-3,3v50.8Z" transform="translate(-11)"/><path class="cls-6" d="M266.6,115.1V87.3a3,3,0,0,0-3-3H245.4a3,3,0,0,0-3,3v27.8Z" transform="translate(-11)"/><path class="cls-7" d="M305.7,115.1V45.3a3,3,0,0,0-3-3H284.5a3,3,0,0,0-3,3v69.8Z" transform="translate(-11)"/><path class="cls-9" d="M379.6,319.7a3,3,0,0,1,3-3h13.6V283.1a5,5,0,0,0-5-5H346a5,5,0,0,0-5,5v45.1a5,5,0,0,0,5,5h33.6Z" transform="translate(-11)"/><path class="cls-6" d="M415.1,347.2a5,5,0,0,1-5,5H382.6a5,5,0,0,1-5-5V319.7a5,5,0,0,1,5-5h27.5a5,5,0,0,1,5,5Z" transform="translate(-11)"/><path class="cls-10" d="M310.9,127.3H159a7.5,7.5,0,0,1,0-15H310.9a7.5,7.5,0,0,1,0,15Z" transform="translate(-11)"/></svg>