<?xml version="1.0" encoding="utf-8"?>
<!-- Generator: Adobe Illustrator 22.0.0, SVG Export Plug-In . SVG Version: 6.00 Build 0)  -->
<svg version="1.1" id="Capa_1" xmlns="http://www.w3.org/2000/svg" xmlns:xlink="http://www.w3.org/1999/xlink" x="0px" y="0px"
	 viewBox="0 0 511 511" style="enable-background:new 0 0 511 511;" xml:space="preserve">
<style type="text/css">
	.st0{fill:#4D13F9;}
	.st1{fill:#181B32;}
	.st2{fill:#E6F7FE;}
	.st3{fill:#D5F1FE;}
	.st4{fill:#8062FC;}
	.st5{fill:#6F4EF5;}
	.st6{fill:#FECD0A;}
	.st7{fill:#39DF74;}
	.st8{fill:#8181FC;}
	.st9{fill:#AEAEFF;}
	.st10{fill:#615DF9;}
	.st11{fill:#12DDDD;}
	.st12{fill:#FFD00D;}
	.st13{fill:#FFAF10;}
	.st14{fill:#3216A4;}
	.st15{fill:#270F87;}
	.st16{fill:#EE1059;}
	.st17{fill:#CC0657;}
	.st18{fill:#FFFFFF;}
	.st19{fill:#1B1E35;}
	.st20{font-family:'ITCAvantGardeStd-Demi';}
	.st21{font-size:50.8322px;}
</style>
<path class="st0" d="M243.5,11c-75,0-142,33.7-186.9,86.8L144,478.9c30.4,13.6,64.1,21.1,99.5,21.1c135,0,244.5-109.5,244.5-244.5
	S378.6,11,243.5,11z"/>
<path class="st1" d="M443.4,96H58.2c-18.2,21.1-32.9,45.4-43,71.9l65.2,269.7c1.2,1.1,2.4,2.1,3.6,3.2h383.1V119.6
	C467.1,106.6,456.4,96,443.4,96z"/>
<path class="st1" d="M68.6,116.9c0-9.8,6.5-18.2,15.4-21H58.2C21.3,138.8-1,194.5-1,255.5c0,66.5,26.6,126.8,69.6,170.8V116.9z"/>
<path class="st2" d="M-1,255.5c0,74.1,33,140.4,85,185.3h363.1V192H7.3C1.9,212.2-1,233.5-1,255.5z"/>
<path class="st3" d="M-1,255.5c0,66.5,26.6,126.8,69.6,170.8V192H7.3C1.9,212.2-1,233.5-1,255.5z"/>
<path class="st4" d="M15,168.3h432.1V120c-0.9-1.3-1.7-2.6-2.6-3.8c-0.4-0.2-0.9-0.3-1.4-0.3H42.7C31.5,132.1,22.2,149.6,15,168.3z"
	/>
<path class="st5" d="M68.7,115.9H42.7c-11.2,16.1-20.6,33.7-27.7,52.4h53.6v-51.3C68.6,116.6,68.6,116.3,68.7,115.9z"/>
<path class="st6" d="M38.8,150.9c-5.5,0-10-4.5-10-10c0-6.2,5.7-11,11.9-9.8c4.5,0.8,8,4.9,8,9.8C48.8,146.5,44.3,150.9,38.8,150.9z
	"/>
<path class="st7" d="M69.3,150.9c-5.5,0-10-4.5-10-10c0-6.2,5.7-11,11.9-9.8c4.5,0.8,8,4.9,8,9.8C79.3,146.5,74.7,150.9,69.3,150.9z
	"/>
<path class="st8" d="M415.7,148.8h-52.6c-4.1,0-7.5-3.4-7.5-7.5c0-4.1,3.4-7.5,7.5-7.5h52.6c4.1,0,7.5,3.4,7.5,7.5
	C423.2,145.5,419.8,148.8,415.7,148.8z"/>
<path class="st8" d="M325.5,148.8H108.9c-4.1,0-7.5-3.4-7.5-7.5c0-4.1,3.4-7.5,7.5-7.5h216.6c4.1,0,7.5,3.4,7.5,7.5
	C333,145.5,329.6,148.8,325.5,148.8z"/>
<path class="st9" d="M502.6,438.8c-8.1,0-250.2,0-420.9,0c19.1,16.9,40.9,30.8,64.6,41.1h319.4c21.4,0,34.8-8.6,40-10.4
	c2.7-1.2,4.4-3.8,4.4-6.8v-16.5C510,442.1,506.7,438.8,502.6,438.8z"/>
<path class="st8" d="M191.5,458.2v-19.4c-37.8,0-75.3,0-109.8,0c19.1,16.9,40.8,30.8,64.6,41.1h40.6c-3.8-1.8-6.5-5.7-6.5-10.3
	C180.3,463.4,185.3,458.4,191.5,458.2z"/>
<path class="st8" d="M116.3,438.8v8.6c0,6.6,5.4,12,12,12h161.7c6.6,0,12-5.4,12-12v-8.6C244.2,438.8,177.9,438.8,116.3,438.8z"/>
<path class="st10" d="M176.4,447.4v-8.6c-20.2,0-40.4,0-60.1,0v8.6c0,6.6,5.4,12,12,12h60.1C181.8,459.3,176.4,453.9,176.4,447.4z"
	/>
<path class="st3" d="M6.8,194h440.3v-27.7H15.8C12.3,175.3,9.3,184.5,6.8,194z"/>
<path class="st11" d="M69.3,194c0-15.3-12.4-27.7-27.7-27.7H15.8c-3.5,9-6.5,18.2-9,27.7H69.3z"/>
<path class="st12" d="M6.9,291.3h254.4c4.4,0,7.9-3.5,7.9-7.9v-55.3c0-4.4-3.5-7.9-7.9-7.9H6.9c-2.2,0-4.3,0.9-5.7,2.4
	C-0.2,233.4-1,244.4-1,255.5c0,11.4,0.8,22.5,2.3,33.5C2.7,290.4,4.7,291.3,6.9,291.3z"/>
<path class="st13" d="M57.4,283.4v-55.3c0-4.4,3.5-7.9,7.9-7.9H6.9c-2.2,0-4.3,0.9-5.7,2.4C-0.2,233.4-1,244.4-1,255.5
	c0,11.4,0.8,22.5,2.3,33.5c1.4,1.4,3.4,2.3,5.6,2.3h58.4C60.9,291.3,57.4,287.8,57.4,283.4z"/>
<path class="st14" d="M261.3,317.3H156.9c-4.4,0-7.9,3.5-7.9,7.9v76.7c0,4.4,3.5,7.9,7.9,7.9h104.5c4.4,0,7.9-3.5,7.9-7.9v-76.7
	C269.2,320.8,265.7,317.3,261.3,317.3z"/>
<path class="st15" d="M207.4,401.9v-76.7c0-4.4,3.5-7.9,7.9-7.9h-58.4c-4.4,0-7.9,3.5-7.9,7.9v76.7c0,4.4,3.5,7.9,7.9,7.9h58.4
	C210.9,409.8,207.4,406.3,207.4,401.9z"/>
<path class="st16" d="M114.1,317.3H9.7c-0.9,0-1.8,0.2-2.7,0.5c9,34.2,25.2,65.5,46.8,92.1h60.3c4.4,0,7.9-3.5,7.9-7.9v-76.7
	C122,320.8,118.5,317.3,114.1,317.3z"/>
<path class="st17" d="M57.4,401.9v-76.7c0-4.4,3.5-7.9,7.9-7.9H9.7c-0.9,0-1.8,0.2-2.7,0.5c9,34.2,25.2,65.5,46.8,92.1h11.4
	C60.9,409.8,57.4,406.3,57.4,401.9z"/>
<circle class="st16" cx="366.4" cy="245" r="51"/>
<path class="st18" d="M366.3,274.4c-0.8,0-1.7-0.4-2.2-0.9l-24.5-24.7c-3-3-4.6-6.9-4.6-11.2c0-4.2,1.6-8.2,4.6-11.2
	c3-3,6.9-4.7,11.1-4.7s8.1,1.7,11.1,4.7l4.7,4.7l4.7-4.7c3-3,6.9-4.7,11.1-4.7s8.1,1.7,11.1,4.7c3,3,4.6,6.9,4.6,11.2
	s-1.6,8.2-4.6,11.2l-24.7,24.7C368,274.1,367.2,274.4,366.3,274.4z"/>
<path class="st13" d="M424.8,327.9H311.4c-1.4,0-2.5,0.9-2.5,2v57.4c0,1.1,1.1,2,2.5,2h113.4c1.4,0,2.5-0.9,2.5-2v-57.4
	C427.3,328.8,426.2,327.9,424.8,327.9z"/>
<path class="st12" d="M425.3,327.9h-114c-0.8,0-1.4,0.3-1.9,0.7l56.9,34.5c1.1,0.7,2.9,0.7,4.1,0l56.9-34.5
	C426.8,328.1,426.1,327.9,425.3,327.9z"/>
<text transform="matrix(1 0 0 1 89.0309 273.3752)" class="st19 st20 st21">ADS</text>
</svg>
